<svg xmlns="http://www.w3.org/2000/svg" xmlns:xlink="http://www.w3.org/1999/xlink" width="1080" zoomAndPan="magnify" viewBox="0 0 810 899.99999" height="1200" preserveAspectRatio="xMidYMid meet" version="1.2"><defs><clipPath id="bf333fefbc"><path d="M 4.148438 504 L 140 504 L 140 641 L 4.148438 641 Z M 4.148438 504 "/></clipPath><clipPath id="3e8435f85d"><path d="M 561 30 L 805.839844 30 L 805.839844 269 L 561 269 Z M 561 30 "/></clipPath><filter x="0%" y="0%" width="100%" filterUnits="objectBoundingBox" id="35f9905723" height="100%"><feColorMatrix values="0 0 0 0 1 0 0 0 0 1 0 0 0 0 1 0 0 0 1 0" type="matrix" in="SourceGraphic"/></filter><clipPath id="fa09b2822e"><path d="M 1 0.078125 L 138 0.078125 L 138 139.761719 L 1 139.761719 Z M 1 0.078125 "/></clipPath><clipPath id="b975bbf647"><rect x="0" width="139" y="0" height="140"/></clipPath><clipPath id="8288b2b8ea"><path d="M 2 0.359375 L 49 0.359375 L 49 77 L 2 77 Z M 2 0.359375 "/></clipPath><clipPath id="77ed158aac"><rect x="0" width="50" y="0" height="78"/></clipPath><clipPath id="70af20a41e"><path d="M 1 2 L 169.921875 2 L 169.921875 173 L 1 173 Z M 1 2 "/></clipPath><clipPath id="3a56fc9365"><rect x="0" width="170" y="0" height="175"/></clipPath><clipPath id="1331538ac1"><path d="M 0.121094 2 L 200 2 L 200 260 L 0.121094 260 Z M 0.121094 2 "/></clipPath><clipPath id="e88ca5be28"><rect x="0" width="201" y="0" height="262"/></clipPath></defs><g id="4a58fd5d00"><path style=" stroke:none;fill-rule:nonzero;fill:#7c0a02;fill-opacity:1;" d="M 21.613281 278.84375 C 21.613281 281.199219 21.671875 283.554688 21.789062 285.90625 C 21.902344 288.261719 22.074219 290.609375 22.308594 292.957031 C 22.539062 295.300781 22.828125 297.636719 23.171875 299.96875 C 23.519531 302.300781 23.921875 304.621094 24.378906 306.929688 C 24.839844 309.242188 25.355469 311.539062 25.929688 313.828125 C 26.5 316.113281 27.128906 318.382812 27.8125 320.636719 C 28.496094 322.890625 29.238281 325.128906 30.03125 327.347656 C 30.824219 329.566406 31.671875 331.765625 32.574219 333.941406 C 33.476562 336.117188 34.429688 338.269531 35.4375 340.402344 C 36.445312 342.53125 37.503906 344.636719 38.613281 346.714844 C 39.726562 348.792969 40.886719 350.839844 42.097656 352.863281 C 43.308594 354.882812 44.570312 356.875 45.878906 358.832031 C 47.1875 360.792969 48.542969 362.71875 49.949219 364.609375 C 51.351562 366.503906 52.800781 368.359375 54.296875 370.179688 C 55.789062 372.003906 57.328125 373.785156 58.910156 375.53125 C 60.492188 377.277344 62.117188 378.984375 63.785156 380.648438 C 65.449219 382.316406 67.15625 383.941406 68.902344 385.523438 C 70.648438 387.105469 72.429688 388.644531 74.253906 390.140625 C 76.074219 391.632812 77.929688 393.082031 79.824219 394.488281 C 81.714844 395.890625 83.640625 397.246094 85.601562 398.554688 C 87.5625 399.863281 89.550781 401.125 91.570312 402.335938 C 93.59375 403.546875 95.644531 404.707031 97.722656 405.820312 C 99.796875 406.929688 101.902344 407.988281 104.03125 408.996094 C 106.164062 410.003906 108.316406 410.957031 110.492188 411.859375 C 112.671875 412.761719 114.867188 413.609375 117.085938 414.402344 C 119.304688 415.199219 121.542969 415.9375 123.796875 416.621094 C 126.050781 417.304688 128.320312 417.933594 130.609375 418.503906 C 132.894531 419.078125 135.191406 419.59375 137.503906 420.054688 C 139.8125 420.511719 142.132812 420.917969 144.464844 421.261719 C 146.796875 421.609375 149.132812 421.894531 151.480469 422.128906 C 153.824219 422.359375 156.171875 422.53125 158.527344 422.648438 C 160.878906 422.761719 163.234375 422.820312 165.589844 422.820312 C 167.949219 422.820312 170.300781 422.761719 172.65625 422.648438 C 175.007812 422.53125 177.359375 422.359375 179.703125 422.128906 C 182.046875 421.894531 184.386719 421.609375 186.71875 421.261719 C 189.046875 420.917969 191.367188 420.511719 193.679688 420.054688 C 195.992188 419.59375 198.289062 419.078125 200.574219 418.503906 C 202.859375 417.933594 205.128906 417.304688 207.386719 416.621094 C 209.640625 415.9375 211.878906 415.199219 214.097656 414.402344 C 216.3125 413.609375 218.511719 412.761719 220.6875 411.859375 C 222.867188 410.957031 225.019531 410.003906 227.148438 408.996094 C 229.28125 407.988281 231.382812 406.929688 233.460938 405.820312 C 235.539062 404.707031 237.589844 403.546875 239.609375 402.335938 C 241.632812 401.125 243.621094 399.863281 245.582031 398.554688 C 247.539062 397.246094 249.464844 395.890625 251.359375 394.488281 C 253.25 393.082031 255.109375 391.632812 256.929688 390.140625 C 258.75 388.644531 260.535156 387.105469 262.28125 385.523438 C 264.027344 383.941406 265.734375 382.316406 267.398438 380.648438 C 269.066406 378.984375 270.6875 377.277344 272.273438 375.53125 C 273.855469 373.785156 275.390625 372.003906 276.886719 370.179688 C 278.382812 368.359375 279.832031 366.503906 281.234375 364.609375 C 282.640625 362.71875 283.996094 360.792969 285.304688 358.832031 C 286.613281 356.875 287.875 354.882812 289.085938 352.863281 C 290.296875 350.839844 291.457031 348.792969 292.566406 346.714844 C 293.679688 344.636719 294.738281 342.53125 295.746094 340.402344 C 296.753906 338.269531 297.707031 336.117188 298.609375 333.941406 C 299.511719 331.765625 300.359375 329.566406 301.152344 327.347656 C 301.945312 325.128906 302.683594 322.890625 303.367188 320.636719 C 304.054688 318.382812 304.679688 316.113281 305.253906 313.828125 C 305.828125 311.539062 306.34375 309.242188 306.800781 306.929688 C 307.261719 304.621094 307.664062 302.300781 308.011719 299.96875 C 308.355469 297.636719 308.644531 295.300781 308.875 292.957031 C 309.105469 290.609375 309.28125 288.261719 309.394531 285.90625 C 309.511719 283.554688 309.570312 281.199219 309.570312 278.84375 C 309.570312 276.488281 309.511719 274.132812 309.394531 271.777344 C 309.28125 269.425781 309.105469 267.074219 308.875 264.730469 C 308.644531 262.386719 308.355469 260.046875 308.011719 257.71875 C 307.664062 255.386719 307.261719 253.066406 306.800781 250.753906 C 306.34375 248.441406 305.828125 246.144531 305.253906 243.859375 C 304.679688 241.574219 304.054688 239.304688 303.367188 237.046875 C 302.683594 234.792969 301.945312 232.558594 301.152344 230.339844 C 300.359375 228.121094 299.511719 225.921875 298.609375 223.746094 C 297.707031 221.566406 296.753906 219.414062 295.746094 217.285156 C 294.738281 215.15625 293.679688 213.050781 292.566406 210.972656 C 291.457031 208.894531 290.296875 206.84375 289.085938 204.824219 C 287.875 202.800781 286.613281 200.8125 285.304688 198.851562 C 283.996094 196.894531 282.640625 194.96875 281.234375 193.074219 C 279.832031 191.183594 278.382812 189.324219 276.886719 187.503906 C 275.390625 185.683594 273.855469 183.898438 272.273438 182.152344 C 270.6875 180.40625 269.066406 178.703125 267.398438 177.035156 C 265.734375 175.371094 264.027344 173.746094 262.28125 172.164062 C 260.535156 170.582031 258.75 169.042969 256.929688 167.546875 C 255.109375 166.050781 253.25 164.601562 251.359375 163.199219 C 249.464844 161.796875 247.539062 160.4375 245.582031 159.128906 C 243.621094 157.820312 241.632812 156.5625 239.609375 155.347656 C 237.589844 154.136719 235.539062 152.976562 233.460938 151.867188 C 231.382812 150.753906 229.28125 149.695312 227.148438 148.6875 C 225.019531 147.679688 222.867188 146.726562 220.6875 145.824219 C 218.511719 144.921875 216.3125 144.074219 214.097656 143.28125 C 211.878906 142.488281 209.640625 141.75 207.386719 141.066406 C 205.128906 140.382812 202.859375 139.753906 200.574219 139.179688 C 198.289062 138.609375 195.992188 138.089844 193.679688 137.632812 C 191.367188 137.171875 189.046875 136.769531 186.71875 136.421875 C 184.386719 136.078125 182.046875 135.789062 179.703125 135.558594 C 177.359375 135.328125 175.007812 135.15625 172.65625 135.039062 C 170.300781 134.921875 167.949219 134.867188 165.589844 134.867188 C 163.234375 134.867188 160.878906 134.921875 158.527344 135.039062 C 156.171875 135.15625 153.824219 135.328125 151.480469 135.558594 C 149.132812 135.789062 146.796875 136.078125 144.464844 136.421875 C 142.132812 136.769531 139.8125 137.171875 137.503906 137.632812 C 135.191406 138.089844 132.894531 138.609375 130.609375 139.179688 C 128.320312 139.753906 126.050781 140.382812 123.796875 141.066406 C 121.542969 141.75 119.304688 142.488281 117.085938 143.28125 C 114.867188 144.074219 112.671875 144.921875 110.492188 145.824219 C 108.316406 146.726562 106.164062 147.679688 104.03125 148.6875 C 101.902344 149.695312 99.796875 150.753906 97.722656 151.867188 C 95.644531 152.976562 93.59375 154.136719 91.570312 155.347656 C 89.550781 156.5625 87.5625 157.820312 85.601562 159.128906 C 83.640625 160.4375 81.714844 161.796875 79.824219 163.199219 C 77.929688 164.601562 76.074219 166.050781 74.253906 167.546875 C 72.429688 169.042969 70.648438 170.582031 68.902344 172.164062 C 67.15625 173.746094 65.449219 175.371094 63.785156 177.035156 C 62.117188 178.703125 60.492188 180.40625 58.910156 182.152344 C 57.328125 183.898438 55.789062 185.683594 54.296875 187.503906 C 52.800781 189.324219 51.351562 191.183594 49.949219 193.074219 C 48.542969 194.96875 47.1875 196.894531 45.878906 198.851562 C 44.570312 200.8125 43.308594 202.800781 42.097656 204.824219 C 40.886719 206.84375 39.726562 208.894531 38.613281 210.972656 C 37.503906 213.050781 36.445312 215.15625 35.4375 217.285156 C 34.429688 219.414062 33.476562 221.566406 32.574219 223.746094 C 31.671875 225.921875 30.824219 228.121094 30.03125 230.339844 C 29.238281 232.558594 28.496094 234.792969 27.8125 237.046875 C 27.128906 239.304688 26.5 241.574219 25.929688 243.859375 C 25.355469 246.144531 24.839844 248.441406 24.378906 250.753906 C 23.921875 253.066406 23.519531 255.386719 23.171875 257.71875 C 22.828125 260.046875 22.539062 262.386719 22.308594 264.730469 C 22.074219 267.074219 21.902344 269.425781 21.789062 271.777344 C 21.671875 274.132812 21.613281 276.488281 21.613281 278.84375 Z M 21.613281 278.84375 "/><path style=" stroke:none;fill-rule:nonzero;fill:#f5faf4;fill-opacity:1;" d="M 43.152344 258.976562 C 42.828125 260.980469 42.550781 262.988281 42.324219 265.007812 C 42.097656 267.023438 41.921875 269.046875 41.792969 271.070312 C 41.667969 273.097656 41.589844 275.125 41.5625 277.15625 C 41.535156 279.183594 41.554688 281.214844 41.628906 283.242188 C 41.699219 285.273438 41.820312 287.296875 41.992188 289.320312 C 42.164062 291.34375 42.386719 293.359375 42.65625 295.371094 C 42.925781 297.382812 43.246094 299.386719 43.617188 301.382812 C 43.984375 303.382812 44.402344 305.367188 44.867188 307.34375 C 45.335938 309.320312 45.851562 311.28125 46.414062 313.230469 C 46.976562 315.183594 47.585938 317.117188 48.242188 319.039062 C 48.902344 320.957031 49.605469 322.863281 50.355469 324.746094 C 51.109375 326.632812 51.90625 328.5 52.75 330.347656 C 53.589844 332.195312 54.480469 334.019531 55.410156 335.820312 C 56.34375 337.625 57.320312 339.402344 58.339844 341.160156 C 59.359375 342.914062 60.421875 344.644531 61.527344 346.347656 C 62.632812 348.050781 63.777344 349.726562 64.964844 351.371094 C 66.152344 353.019531 67.378906 354.636719 68.644531 356.222656 C 69.910156 357.808594 71.214844 359.363281 72.558594 360.886719 C 73.902344 362.410156 75.28125 363.898438 76.695312 365.351562 C 78.113281 366.808594 79.5625 368.226562 81.046875 369.609375 C 82.535156 370.992188 84.050781 372.339844 85.601562 373.648438 C 87.15625 374.957031 88.738281 376.226562 90.351562 377.460938 C 91.964844 378.691406 93.609375 379.882812 95.28125 381.03125 C 96.953125 382.183594 98.652344 383.292969 100.378906 384.359375 C 102.105469 385.425781 103.859375 386.449219 105.636719 387.433594 C 107.414062 388.414062 109.214844 389.351562 111.035156 390.242188 C 112.859375 391.136719 114.703125 391.984375 116.566406 392.785156 C 118.433594 393.585938 120.316406 394.34375 122.21875 395.054688 C 124.121094 395.761719 126.039062 396.425781 127.972656 397.042969 C 129.90625 397.65625 131.855469 398.226562 133.816406 398.746094 C 135.78125 399.265625 137.753906 399.738281 139.738281 400.160156 C 141.726562 400.582031 143.71875 400.957031 145.722656 401.28125 C 147.726562 401.609375 149.738281 401.882812 151.753906 402.109375 C 153.773438 402.335938 155.792969 402.511719 157.820312 402.640625 C 159.847656 402.769531 161.875 402.84375 163.902344 402.871094 C 165.933594 402.898438 167.964844 402.878906 169.992188 402.804688 C 172.019531 402.734375 174.046875 402.613281 176.070312 402.441406 C 178.09375 402.269531 180.109375 402.046875 182.121094 401.777344 C 184.132812 401.507812 186.136719 401.1875 188.132812 400.820312 C 190.128906 400.449219 192.117188 400.03125 194.089844 399.566406 C 196.066406 399.097656 198.03125 398.585938 199.980469 398.023438 C 201.929688 397.457031 203.867188 396.847656 205.785156 396.191406 C 207.707031 395.53125 209.609375 394.828125 211.496094 394.078125 C 213.382812 393.324219 215.25 392.527344 217.09375 391.6875 C 218.941406 390.84375 220.765625 389.957031 222.570312 389.023438 C 224.375 388.089844 226.152344 387.113281 227.90625 386.09375 C 229.664062 385.074219 231.390625 384.011719 233.09375 382.90625 C 234.796875 381.800781 236.472656 380.65625 238.121094 379.46875 C 239.765625 378.28125 241.382812 377.054688 242.96875 375.789062 C 244.558594 374.523438 246.113281 373.21875 247.632812 371.875 C 249.15625 370.535156 250.644531 369.152344 252.101562 367.738281 C 253.554688 366.324219 254.972656 364.871094 256.359375 363.386719 C 257.742188 361.902344 259.089844 360.382812 260.398438 358.832031 C 261.707031 357.28125 262.976562 355.695312 264.207031 354.082031 C 265.4375 352.46875 266.628906 350.824219 267.78125 349.152344 C 268.929688 347.480469 270.039062 345.78125 271.109375 344.054688 C 272.175781 342.328125 273.199219 340.574219 274.179688 338.796875 C 275.160156 337.019531 276.097656 335.222656 276.992188 333.398438 C 277.882812 331.574219 278.730469 329.730469 279.535156 327.867188 C 280.335938 326 281.09375 324.117188 281.800781 322.214844 C 282.511719 320.3125 283.175781 318.394531 283.789062 316.460938 C 284.40625 314.527344 284.972656 312.578125 285.492188 310.617188 C 286.015625 308.652344 286.484375 306.679688 286.910156 304.695312 C 287.332031 302.710938 287.707031 300.714844 288.03125 298.710938 C 288.355469 296.707031 288.632812 294.695312 288.859375 292.679688 C 289.085938 290.660156 289.261719 288.640625 289.390625 286.613281 C 289.515625 284.589844 289.59375 282.558594 289.621094 280.53125 C 289.648438 278.5 289.625 276.472656 289.554688 274.441406 C 289.484375 272.414062 289.359375 270.386719 289.1875 268.363281 C 289.019531 266.34375 288.796875 264.324219 288.527344 262.3125 C 288.253906 260.300781 287.9375 258.296875 287.566406 256.300781 C 287.199219 254.304688 286.78125 252.320312 286.3125 250.34375 C 285.847656 248.367188 285.332031 246.402344 284.769531 244.453125 C 284.207031 242.503906 283.597656 240.566406 282.9375 238.648438 C 282.28125 236.726562 281.578125 234.824219 280.824219 232.9375 C 280.074219 231.050781 279.277344 229.1875 278.433594 227.339844 C 277.589844 225.492188 276.703125 223.667969 275.769531 221.863281 C 274.839844 220.0625 273.863281 218.28125 272.84375 216.527344 C 271.824219 214.769531 270.761719 213.042969 269.65625 211.339844 C 268.550781 209.636719 267.40625 207.960938 266.21875 206.3125 C 265.03125 204.667969 263.804688 203.050781 262.539062 201.464844 C 261.273438 199.878906 259.96875 198.324219 258.625 196.800781 C 257.28125 195.277344 255.902344 193.789062 254.488281 192.332031 C 253.070312 190.878906 251.621094 189.460938 250.136719 188.078125 C 248.648438 186.691406 247.132812 185.347656 245.578125 184.039062 C 244.027344 182.726562 242.445312 181.457031 240.832031 180.226562 C 239.21875 178.996094 237.574219 177.804688 235.902344 176.652344 C 234.230469 175.503906 232.53125 174.394531 230.804688 173.328125 C 229.074219 172.257812 227.324219 171.234375 225.546875 170.253906 C 223.769531 169.273438 221.96875 168.335938 220.144531 167.441406 C 218.324219 166.550781 216.480469 165.703125 214.613281 164.898438 C 212.75 164.097656 210.867188 163.34375 208.964844 162.632812 C 207.0625 161.921875 205.144531 161.257812 203.210938 160.644531 C 201.277344 160.027344 199.328125 159.460938 197.363281 158.941406 C 195.402344 158.421875 193.429688 157.949219 191.441406 157.527344 C 189.457031 157.101562 187.464844 156.726562 185.460938 156.402344 C 183.457031 156.078125 181.445312 155.800781 179.429688 155.574219 C 177.410156 155.347656 175.390625 155.171875 173.363281 155.046875 C 171.335938 154.917969 169.308594 154.839844 167.277344 154.8125 C 165.25 154.785156 163.21875 154.808594 161.191406 154.878906 C 159.164062 154.953125 157.136719 155.074219 155.113281 155.246094 C 153.089844 155.417969 151.074219 155.636719 149.0625 155.90625 C 147.050781 156.179688 145.046875 156.5 143.050781 156.867188 C 141.054688 157.234375 139.066406 157.652344 137.089844 158.121094 C 135.117188 158.585938 133.152344 159.101562 131.203125 159.664062 C 129.25 160.226562 127.316406 160.835938 125.394531 161.496094 C 123.476562 162.152344 121.570312 162.855469 119.6875 163.609375 C 117.800781 164.359375 115.933594 165.15625 114.085938 166 C 112.242188 166.84375 110.414062 167.730469 108.613281 168.664062 C 106.808594 169.59375 105.03125 170.570312 103.273438 171.589844 C 101.519531 172.613281 99.789062 173.671875 98.085938 174.777344 C 96.382812 175.882812 94.710938 177.027344 93.0625 178.214844 C 91.414062 179.402344 89.796875 180.628906 88.210938 181.894531 C 86.625 183.164062 85.070312 184.46875 83.546875 185.808594 C 82.027344 187.152344 80.539062 188.53125 79.082031 189.949219 C 77.628906 191.363281 76.207031 192.8125 74.824219 194.300781 C 73.441406 195.785156 72.09375 197.304688 70.785156 198.855469 C 69.476562 200.40625 68.207031 201.988281 66.976562 203.601562 C 65.742188 205.21875 64.550781 206.859375 63.402344 208.53125 C 62.25 210.203125 61.140625 211.90625 60.074219 213.632812 C 59.007812 215.359375 57.984375 217.109375 57.003906 218.886719 C 56.019531 220.664062 55.085938 222.464844 54.191406 224.289062 C 53.296875 226.109375 52.449219 227.953125 51.648438 229.820312 C 50.847656 231.683594 50.089844 233.566406 49.378906 235.46875 C 48.671875 237.371094 48.007812 239.289062 47.390625 241.222656 C 46.777344 243.160156 46.207031 245.105469 45.6875 247.070312 C 45.167969 249.03125 44.695312 251.003906 44.273438 252.992188 C 43.851562 254.976562 43.476562 256.972656 43.152344 258.976562 Z M 43.152344 258.976562 "/><path style=" stroke:none;fill-rule:nonzero;fill:#f4a795;fill-opacity:1;" d="M 162.109375 180.789062 C 162.109375 181.132812 162.144531 181.472656 162.210938 181.808594 C 162.277344 182.144531 162.375 182.472656 162.507812 182.789062 C 162.640625 183.105469 162.800781 183.40625 162.992188 183.691406 C 163.179688 183.976562 163.398438 184.238281 163.640625 184.484375 C 163.882812 184.726562 164.144531 184.941406 164.429688 185.132812 C 164.714844 185.324219 165.015625 185.484375 165.332031 185.613281 C 165.652344 185.746094 165.976562 185.84375 166.3125 185.910156 C 166.648438 185.976562 166.988281 186.011719 167.332031 186.011719 C 167.675781 186.011719 168.015625 185.976562 168.351562 185.910156 C 168.6875 185.84375 169.011719 185.746094 169.328125 185.613281 C 169.648438 185.484375 169.949219 185.324219 170.234375 185.132812 C 170.515625 184.941406 170.78125 184.726562 171.023438 184.484375 C 171.265625 184.238281 171.484375 183.976562 171.671875 183.691406 C 171.863281 183.40625 172.023438 183.105469 172.15625 182.789062 C 172.285156 182.472656 172.386719 182.144531 172.453125 181.808594 C 172.519531 181.472656 172.554688 181.132812 172.554688 180.789062 C 172.554688 180.449219 172.519531 180.109375 172.453125 179.773438 C 172.386719 179.4375 172.285156 179.109375 172.15625 178.792969 C 172.023438 178.476562 171.863281 178.175781 171.671875 177.890625 C 171.484375 177.605469 171.265625 177.339844 171.023438 177.097656 C 170.78125 176.855469 170.515625 176.640625 170.234375 176.449219 C 169.949219 176.257812 169.648438 176.097656 169.328125 175.96875 C 169.011719 175.835938 168.6875 175.738281 168.351562 175.667969 C 168.015625 175.601562 167.675781 175.570312 167.332031 175.570312 C 166.988281 175.570312 166.648438 175.601562 166.3125 175.667969 C 165.976562 175.738281 165.652344 175.835938 165.332031 175.96875 C 165.015625 176.097656 164.714844 176.257812 164.429688 176.449219 C 164.144531 176.640625 163.882812 176.855469 163.640625 177.097656 C 163.398438 177.339844 163.179688 177.605469 162.992188 177.890625 C 162.800781 178.175781 162.640625 178.476562 162.507812 178.792969 C 162.375 179.109375 162.277344 179.4375 162.210938 179.773438 C 162.144531 180.109375 162.109375 180.449219 162.109375 180.789062 Z M 162.109375 180.789062 "/><path style=" stroke:none;fill-rule:nonzero;fill:#f4a795;fill-opacity:1;" d="M 162.109375 180.789062 C 162.109375 181.132812 162.144531 181.472656 162.210938 181.808594 C 162.277344 182.144531 162.375 182.472656 162.507812 182.789062 C 162.640625 183.105469 162.800781 183.40625 162.992188 183.691406 C 163.179688 183.976562 163.398438 184.238281 163.640625 184.484375 C 163.882812 184.726562 164.144531 184.941406 164.429688 185.132812 C 164.714844 185.324219 165.015625 185.484375 165.332031 185.613281 C 165.652344 185.746094 165.976562 185.84375 166.3125 185.910156 C 166.648438 185.976562 166.988281 186.011719 167.332031 186.011719 C 167.675781 186.011719 168.015625 185.976562 168.351562 185.910156 C 168.6875 185.84375 169.011719 185.746094 169.328125 185.613281 C 169.648438 185.484375 169.949219 185.324219 170.234375 185.132812 C 170.515625 184.941406 170.78125 184.726562 171.023438 184.484375 C 171.265625 184.238281 171.484375 183.976562 171.671875 183.691406 C 171.863281 183.40625 172.023438 183.105469 172.15625 182.789062 C 172.285156 182.472656 172.386719 182.144531 172.453125 181.808594 C 172.519531 181.472656 172.554688 181.132812 172.554688 180.789062 C 172.554688 180.449219 172.519531 180.109375 172.453125 179.773438 C 172.386719 179.4375 172.285156 179.109375 172.15625 178.792969 C 172.023438 178.476562 171.863281 178.175781 171.671875 177.890625 C 171.484375 177.605469 171.265625 177.339844 171.023438 177.097656 C 170.78125 176.855469 170.515625 176.640625 170.234375 176.449219 C 169.949219 176.257812 169.648438 176.097656 169.328125 175.96875 C 169.011719 175.835938 168.6875 175.738281 168.351562 175.667969 C 168.015625 175.601562 167.675781 175.570312 167.332031 175.570312 C 166.988281 175.570312 166.648438 175.601562 166.3125 175.667969 C 165.976562 175.738281 165.652344 175.835938 165.332031 175.96875 C 165.015625 176.097656 164.714844 176.257812 164.429688 176.449219 C 164.144531 176.640625 163.882812 176.855469 163.640625 177.097656 C 163.398438 177.339844 163.179688 177.605469 162.992188 177.890625 C 162.800781 178.175781 162.640625 178.476562 162.507812 178.792969 C 162.375 179.109375 162.277344 179.4375 162.210938 179.773438 C 162.144531 180.109375 162.109375 180.449219 162.109375 180.789062 Z M 162.109375 180.789062 "/><path style=" stroke:none;fill-rule:nonzero;fill:#f4a795;fill-opacity:1;" d="M 210.902344 194.796875 C 210.902344 195.140625 210.9375 195.480469 211.003906 195.816406 C 211.070312 196.152344 211.171875 196.480469 211.300781 196.796875 C 211.433594 197.113281 211.59375 197.414062 211.785156 197.699219 C 211.972656 197.984375 212.191406 198.25 212.433594 198.492188 C 212.675781 198.734375 212.9375 198.949219 213.222656 199.140625 C 213.507812 199.332031 213.808594 199.492188 214.125 199.621094 C 214.445312 199.753906 214.769531 199.851562 215.105469 199.917969 C 215.441406 199.988281 215.78125 200.019531 216.125 200.019531 C 216.46875 200.019531 216.808594 199.988281 217.144531 199.917969 C 217.480469 199.851562 217.804688 199.753906 218.121094 199.621094 C 218.441406 199.492188 218.742188 199.332031 219.027344 199.140625 C 219.3125 198.949219 219.574219 198.734375 219.816406 198.492188 C 220.058594 198.25 220.277344 197.984375 220.464844 197.699219 C 220.65625 197.414062 220.816406 197.113281 220.949219 196.796875 C 221.078125 196.480469 221.179688 196.152344 221.246094 195.816406 C 221.3125 195.480469 221.347656 195.140625 221.347656 194.796875 C 221.347656 194.457031 221.3125 194.117188 221.246094 193.78125 C 221.179688 193.445312 221.078125 193.117188 220.949219 192.800781 C 220.816406 192.484375 220.65625 192.183594 220.464844 191.898438 C 220.277344 191.613281 220.058594 191.347656 219.816406 191.105469 C 219.574219 190.863281 219.3125 190.648438 219.027344 190.457031 C 218.742188 190.265625 218.441406 190.105469 218.121094 189.976562 C 217.804688 189.84375 217.480469 189.746094 217.144531 189.679688 C 216.808594 189.609375 216.46875 189.578125 216.125 189.578125 C 215.78125 189.578125 215.441406 189.609375 215.105469 189.679688 C 214.769531 189.746094 214.445312 189.84375 214.125 189.976562 C 213.808594 190.105469 213.507812 190.265625 213.222656 190.457031 C 212.9375 190.648438 212.675781 190.863281 212.433594 191.105469 C 212.191406 191.347656 211.972656 191.613281 211.785156 191.898438 C 211.59375 192.183594 211.433594 192.484375 211.300781 192.800781 C 211.171875 193.117188 211.070312 193.445312 211.003906 193.78125 C 210.9375 194.117188 210.902344 194.457031 210.902344 194.796875 Z M 210.902344 194.796875 "/><path style=" stroke:none;fill-rule:nonzero;fill:#f4a795;fill-opacity:1;" d="M 246.15625 231.324219 C 246.15625 231.667969 246.1875 232.007812 246.253906 232.34375 C 246.320312 232.679688 246.421875 233.003906 246.550781 233.324219 C 246.683594 233.640625 246.84375 233.941406 247.035156 234.226562 C 247.226562 234.511719 247.441406 234.773438 247.683594 235.015625 C 247.925781 235.257812 248.191406 235.476562 248.476562 235.664062 C 248.761719 235.855469 249.0625 236.015625 249.378906 236.148438 C 249.695312 236.277344 250.019531 236.378906 250.355469 236.445312 C 250.695312 236.511719 251.03125 236.546875 251.375 236.546875 C 251.71875 236.546875 252.058594 236.511719 252.394531 236.445312 C 252.730469 236.378906 253.058594 236.277344 253.375 236.148438 C 253.691406 236.015625 253.992188 235.855469 254.277344 235.664062 C 254.5625 235.476562 254.824219 235.257812 255.066406 235.015625 C 255.308594 234.773438 255.527344 234.511719 255.71875 234.226562 C 255.90625 233.941406 256.070312 233.640625 256.199219 233.324219 C 256.332031 233.003906 256.429688 232.679688 256.496094 232.34375 C 256.5625 232.007812 256.597656 231.667969 256.597656 231.324219 C 256.597656 230.980469 256.5625 230.640625 256.496094 230.304688 C 256.429688 229.96875 256.332031 229.644531 256.199219 229.328125 C 256.070312 229.007812 255.90625 228.707031 255.71875 228.421875 C 255.527344 228.136719 255.308594 227.875 255.066406 227.632812 C 254.824219 227.390625 254.5625 227.171875 254.277344 226.984375 C 253.992188 226.792969 253.691406 226.632812 253.375 226.5 C 253.058594 226.371094 252.730469 226.269531 252.394531 226.203125 C 252.058594 226.136719 251.71875 226.101562 251.375 226.101562 C 251.03125 226.101562 250.695312 226.136719 250.355469 226.203125 C 250.019531 226.269531 249.695312 226.371094 249.378906 226.5 C 249.0625 226.632812 248.761719 226.792969 248.476562 226.984375 C 248.191406 227.171875 247.925781 227.390625 247.683594 227.632812 C 247.441406 227.875 247.226562 228.136719 247.035156 228.421875 C 246.84375 228.707031 246.683594 229.007812 246.550781 229.328125 C 246.421875 229.644531 246.320312 229.96875 246.253906 230.304688 C 246.1875 230.640625 246.15625 230.980469 246.15625 231.324219 Z M 246.15625 231.324219 "/><path style=" stroke:none;fill-rule:nonzero;fill:#f4a795;fill-opacity:1;" d="M 258.421875 280.582031 C 258.421875 280.925781 258.453125 281.265625 258.519531 281.601562 C 258.585938 281.9375 258.6875 282.265625 258.816406 282.582031 C 258.949219 282.898438 259.109375 283.199219 259.300781 283.484375 C 259.492188 283.769531 259.707031 284.03125 259.949219 284.273438 C 260.191406 284.519531 260.457031 284.734375 260.742188 284.925781 C 261.027344 285.113281 261.328125 285.277344 261.644531 285.40625 C 261.960938 285.539062 262.285156 285.636719 262.625 285.703125 C 262.960938 285.769531 263.296875 285.804688 263.640625 285.804688 C 263.984375 285.804688 264.324219 285.769531 264.660156 285.703125 C 264.996094 285.636719 265.324219 285.539062 265.640625 285.40625 C 265.957031 285.277344 266.257812 285.113281 266.542969 284.925781 C 266.828125 284.734375 267.089844 284.519531 267.332031 284.273438 C 267.574219 284.03125 267.792969 283.769531 267.984375 283.484375 C 268.171875 283.199219 268.335938 282.898438 268.464844 282.582031 C 268.597656 282.265625 268.695312 281.9375 268.761719 281.601562 C 268.828125 281.265625 268.863281 280.925781 268.863281 280.582031 C 268.863281 280.242188 268.828125 279.902344 268.761719 279.566406 C 268.695312 279.226562 268.597656 278.902344 268.464844 278.585938 C 268.335938 278.269531 268.171875 277.96875 267.984375 277.683594 C 267.792969 277.398438 267.574219 277.132812 267.332031 276.890625 C 267.089844 276.648438 266.828125 276.433594 266.542969 276.242188 C 266.257812 276.050781 265.957031 275.890625 265.640625 275.757812 C 265.324219 275.628906 264.996094 275.53125 264.660156 275.460938 C 264.324219 275.394531 263.984375 275.363281 263.640625 275.363281 C 263.296875 275.363281 262.960938 275.394531 262.625 275.460938 C 262.285156 275.53125 261.960938 275.628906 261.644531 275.757812 C 261.328125 275.890625 261.027344 276.050781 260.742188 276.242188 C 260.457031 276.433594 260.191406 276.648438 259.949219 276.890625 C 259.707031 277.132812 259.492188 277.398438 259.300781 277.683594 C 259.109375 277.96875 258.949219 278.269531 258.816406 278.585938 C 258.6875 278.902344 258.585938 279.226562 258.519531 279.566406 C 258.453125 279.902344 258.421875 280.242188 258.421875 280.582031 Z M 258.421875 280.582031 "/><path style=" stroke:none;fill-rule:nonzero;fill:#f4a795;fill-opacity:1;" d="M 244.414062 329.375 C 244.414062 329.71875 244.449219 330.058594 244.515625 330.394531 C 244.582031 330.730469 244.679688 331.058594 244.8125 331.375 C 244.941406 331.691406 245.105469 331.992188 245.292969 332.277344 C 245.484375 332.5625 245.703125 332.824219 245.945312 333.070312 C 246.1875 333.3125 246.449219 333.527344 246.734375 333.71875 C 247.019531 333.910156 247.320312 334.070312 247.636719 334.199219 C 247.953125 334.332031 248.28125 334.429688 248.617188 334.496094 C 248.953125 334.5625 249.292969 334.597656 249.636719 334.597656 C 249.976562 334.597656 250.316406 334.5625 250.652344 334.496094 C 250.992188 334.429688 251.316406 334.332031 251.632812 334.199219 C 251.949219 334.070312 252.25 333.910156 252.535156 333.71875 C 252.820312 333.527344 253.085938 333.3125 253.328125 333.070312 C 253.570312 332.824219 253.785156 332.5625 253.976562 332.277344 C 254.167969 331.992188 254.328125 331.691406 254.460938 331.375 C 254.589844 331.058594 254.6875 330.730469 254.757812 330.394531 C 254.824219 330.058594 254.855469 329.71875 254.855469 329.375 C 254.855469 329.035156 254.824219 328.695312 254.757812 328.359375 C 254.6875 328.023438 254.589844 327.695312 254.460938 327.378906 C 254.328125 327.0625 254.167969 326.761719 253.976562 326.476562 C 253.785156 326.191406 253.570312 325.925781 253.328125 325.683594 C 253.085938 325.441406 252.820312 325.226562 252.535156 325.035156 C 252.25 324.84375 251.949219 324.683594 251.632812 324.554688 C 251.316406 324.421875 250.992188 324.324219 250.652344 324.253906 C 250.316406 324.1875 249.976562 324.15625 249.636719 324.15625 C 249.292969 324.15625 248.953125 324.1875 248.617188 324.253906 C 248.28125 324.324219 247.953125 324.421875 247.636719 324.554688 C 247.320312 324.683594 247.019531 324.84375 246.734375 325.035156 C 246.449219 325.226562 246.1875 325.441406 245.945312 325.683594 C 245.703125 325.925781 245.484375 326.191406 245.292969 326.476562 C 245.105469 326.761719 244.941406 327.0625 244.8125 327.378906 C 244.679688 327.695312 244.582031 328.023438 244.515625 328.359375 C 244.449219 328.695312 244.414062 329.035156 244.414062 329.375 Z M 244.414062 329.375 "/><path style=" stroke:none;fill-rule:nonzero;fill:#f4a795;fill-opacity:1;" d="M 207.890625 364.628906 C 207.890625 364.96875 207.921875 365.308594 207.988281 365.644531 C 208.054688 365.980469 208.15625 366.308594 208.285156 366.625 C 208.417969 366.941406 208.578125 367.242188 208.769531 367.527344 C 208.960938 367.8125 209.175781 368.078125 209.417969 368.320312 C 209.660156 368.5625 209.925781 368.777344 210.210938 368.96875 C 210.496094 369.160156 210.796875 369.320312 211.113281 369.453125 C 211.429688 369.582031 211.753906 369.679688 212.089844 369.75 C 212.425781 369.816406 212.765625 369.847656 213.109375 369.847656 C 213.453125 369.847656 213.792969 369.816406 214.128906 369.75 C 214.464844 369.679688 214.792969 369.582031 215.109375 369.453125 C 215.425781 369.320312 215.726562 369.160156 216.011719 368.96875 C 216.296875 368.777344 216.558594 368.5625 216.800781 368.320312 C 217.042969 368.078125 217.261719 367.8125 217.453125 367.527344 C 217.640625 367.242188 217.800781 366.941406 217.933594 366.625 C 218.066406 366.308594 218.164062 365.980469 218.230469 365.644531 C 218.296875 365.308594 218.332031 364.96875 218.332031 364.628906 C 218.332031 364.285156 218.296875 363.945312 218.230469 363.609375 C 218.164062 363.273438 218.066406 362.945312 217.933594 362.628906 C 217.800781 362.3125 217.640625 362.011719 217.449219 361.726562 C 217.261719 361.441406 217.042969 361.179688 216.800781 360.933594 C 216.558594 360.691406 216.296875 360.476562 216.011719 360.285156 C 215.726562 360.097656 215.425781 359.933594 215.109375 359.804688 C 214.792969 359.671875 214.464844 359.574219 214.128906 359.507812 C 213.792969 359.441406 213.453125 359.40625 213.109375 359.40625 C 212.765625 359.40625 212.425781 359.441406 212.089844 359.507812 C 211.753906 359.574219 211.429688 359.671875 211.113281 359.804688 C 210.796875 359.933594 210.496094 360.097656 210.210938 360.285156 C 209.925781 360.476562 209.660156 360.691406 209.417969 360.933594 C 209.175781 361.179688 208.960938 361.441406 208.769531 361.726562 C 208.578125 362.011719 208.417969 362.3125 208.285156 362.628906 C 208.15625 362.945312 208.054688 363.273438 207.988281 363.609375 C 207.921875 363.945312 207.890625 364.285156 207.890625 364.628906 Z M 207.890625 364.628906 "/><path style=" stroke:none;fill-rule:nonzero;fill:#f4a795;fill-opacity:1;" d="M 158.628906 376.894531 C 158.628906 377.234375 158.664062 377.574219 158.730469 377.910156 C 158.796875 378.246094 158.894531 378.574219 159.027344 378.890625 C 159.160156 379.207031 159.320312 379.507812 159.507812 379.792969 C 159.699219 380.078125 159.917969 380.34375 160.160156 380.585938 C 160.402344 380.828125 160.664062 381.042969 160.949219 381.234375 C 161.234375 381.425781 161.535156 381.585938 161.851562 381.71875 C 162.167969 381.847656 162.496094 381.945312 162.832031 382.015625 C 163.167969 382.082031 163.507812 382.113281 163.851562 382.113281 C 164.195312 382.113281 164.535156 382.082031 164.871094 382.015625 C 165.207031 381.945312 165.53125 381.847656 165.847656 381.71875 C 166.164062 381.585938 166.464844 381.425781 166.75 381.234375 C 167.035156 381.042969 167.300781 380.828125 167.542969 380.585938 C 167.785156 380.34375 168 380.078125 168.191406 379.792969 C 168.382812 379.507812 168.542969 379.207031 168.675781 378.890625 C 168.804688 378.574219 168.90625 378.246094 168.972656 377.910156 C 169.039062 377.574219 169.070312 377.234375 169.070312 376.894531 C 169.070312 376.550781 169.039062 376.210938 168.972656 375.875 C 168.90625 375.539062 168.804688 375.210938 168.675781 374.894531 C 168.542969 374.578125 168.382812 374.277344 168.191406 373.992188 C 168 373.707031 167.785156 373.445312 167.542969 373.203125 C 167.300781 372.957031 167.035156 372.742188 166.75 372.550781 C 166.464844 372.363281 166.164062 372.199219 165.847656 372.070312 C 165.53125 371.9375 165.207031 371.839844 164.871094 371.773438 C 164.535156 371.707031 164.195312 371.671875 163.851562 371.671875 C 163.507812 371.671875 163.167969 371.707031 162.832031 371.773438 C 162.496094 371.839844 162.167969 371.9375 161.851562 372.070312 C 161.535156 372.199219 161.234375 372.363281 160.949219 372.550781 C 160.664062 372.742188 160.402344 372.957031 160.160156 373.203125 C 159.917969 373.445312 159.699219 373.707031 159.507812 373.992188 C 159.320312 374.277344 159.160156 374.578125 159.027344 374.894531 C 158.894531 375.210938 158.796875 375.539062 158.730469 375.875 C 158.664062 376.210938 158.628906 376.550781 158.628906 376.894531 Z M 158.628906 376.894531 "/><path style=" stroke:none;fill-rule:nonzero;fill:#f4a795;fill-opacity:1;" d="M 109.835938 362.886719 C 109.835938 363.230469 109.871094 363.570312 109.9375 363.90625 C 110.003906 364.242188 110.101562 364.570312 110.234375 364.886719 C 110.363281 365.203125 110.527344 365.503906 110.714844 365.789062 C 110.90625 366.074219 111.125 366.335938 111.367188 366.578125 C 111.609375 366.820312 111.871094 367.039062 112.15625 367.226562 C 112.441406 367.417969 112.742188 367.578125 113.058594 367.710938 C 113.375 367.84375 113.703125 367.941406 114.039062 368.007812 C 114.375 368.074219 114.714844 368.109375 115.058594 368.109375 C 115.402344 368.109375 115.738281 368.074219 116.078125 368.007812 C 116.414062 367.941406 116.738281 367.84375 117.054688 367.710938 C 117.371094 367.578125 117.671875 367.417969 117.957031 367.226562 C 118.242188 367.039062 118.507812 366.820312 118.75 366.578125 C 118.992188 366.335938 119.207031 366.074219 119.398438 365.789062 C 119.589844 365.503906 119.75 365.203125 119.882812 364.886719 C 120.011719 364.570312 120.113281 364.242188 120.179688 363.90625 C 120.246094 363.570312 120.277344 363.230469 120.277344 362.886719 C 120.277344 362.542969 120.246094 362.203125 120.179688 361.867188 C 120.113281 361.53125 120.011719 361.207031 119.882812 360.890625 C 119.75 360.574219 119.589844 360.269531 119.398438 359.988281 C 119.207031 359.703125 118.992188 359.4375 118.75 359.195312 C 118.507812 358.953125 118.242188 358.734375 117.957031 358.546875 C 117.671875 358.355469 117.371094 358.195312 117.054688 358.0625 C 116.738281 357.933594 116.414062 357.832031 116.078125 357.765625 C 115.738281 357.699219 115.402344 357.664062 115.058594 357.664062 C 114.714844 357.664062 114.375 357.699219 114.039062 357.765625 C 113.703125 357.832031 113.375 357.933594 113.058594 358.0625 C 112.742188 358.195312 112.441406 358.355469 112.15625 358.546875 C 111.871094 358.734375 111.609375 358.953125 111.367188 359.195312 C 111.125 359.4375 110.90625 359.703125 110.714844 359.988281 C 110.527344 360.269531 110.363281 360.574219 110.234375 360.890625 C 110.101562 361.207031 110.003906 361.53125 109.9375 361.867188 C 109.871094 362.203125 109.835938 362.542969 109.835938 362.886719 Z M 109.835938 362.886719 "/><path style=" stroke:none;fill-rule:nonzero;fill:#f4a795;fill-opacity:1;" d="M 74.585938 326.363281 C 74.585938 326.703125 74.617188 327.042969 74.6875 327.378906 C 74.753906 327.714844 74.851562 328.042969 74.984375 328.359375 C 75.113281 328.675781 75.273438 328.976562 75.464844 329.261719 C 75.65625 329.546875 75.871094 329.8125 76.113281 330.054688 C 76.355469 330.296875 76.621094 330.511719 76.90625 330.703125 C 77.191406 330.894531 77.492188 331.054688 77.808594 331.183594 C 78.125 331.316406 78.453125 331.414062 78.789062 331.480469 C 79.125 331.550781 79.464844 331.582031 79.808594 331.582031 C 80.148438 331.582031 80.488281 331.550781 80.824219 331.480469 C 81.160156 331.414062 81.488281 331.316406 81.804688 331.183594 C 82.121094 331.054688 82.421875 330.894531 82.707031 330.703125 C 82.992188 330.511719 83.257812 330.296875 83.5 330.054688 C 83.742188 329.8125 83.957031 329.546875 84.148438 329.261719 C 84.339844 328.976562 84.5 328.675781 84.628906 328.359375 C 84.761719 328.042969 84.859375 327.714844 84.925781 327.378906 C 84.996094 327.042969 85.027344 326.703125 85.027344 326.363281 C 85.027344 326.019531 84.996094 325.679688 84.925781 325.34375 C 84.859375 325.007812 84.761719 324.679688 84.628906 324.363281 C 84.5 324.046875 84.339844 323.746094 84.148438 323.460938 C 83.957031 323.175781 83.742188 322.910156 83.5 322.667969 C 83.257812 322.425781 82.992188 322.210938 82.707031 322.019531 C 82.421875 321.828125 82.121094 321.667969 81.804688 321.539062 C 81.488281 321.40625 81.160156 321.308594 80.824219 321.242188 C 80.488281 321.171875 80.148438 321.140625 79.808594 321.140625 C 79.464844 321.140625 79.125 321.171875 78.789062 321.242188 C 78.453125 321.308594 78.125 321.40625 77.808594 321.539062 C 77.492188 321.667969 77.191406 321.828125 76.90625 322.019531 C 76.621094 322.210938 76.355469 322.425781 76.113281 322.667969 C 75.871094 322.910156 75.65625 323.175781 75.464844 323.460938 C 75.273438 323.746094 75.113281 324.046875 74.984375 324.363281 C 74.851562 324.679688 74.753906 325.007812 74.6875 325.34375 C 74.617188 325.679688 74.585938 326.019531 74.585938 326.363281 Z M 74.585938 326.363281 "/><path style=" stroke:none;fill-rule:nonzero;fill:#f4a795;fill-opacity:1;" d="M 62.316406 277.101562 C 62.316406 277.445312 62.351562 277.785156 62.417969 278.121094 C 62.484375 278.457031 62.585938 278.785156 62.714844 279.101562 C 62.847656 279.417969 63.007812 279.71875 63.199219 280.003906 C 63.386719 280.289062 63.605469 280.550781 63.847656 280.792969 C 64.089844 281.035156 64.351562 281.253906 64.636719 281.445312 C 64.921875 281.632812 65.222656 281.796875 65.542969 281.925781 C 65.859375 282.058594 66.183594 282.15625 66.519531 282.222656 C 66.855469 282.289062 67.195312 282.324219 67.539062 282.324219 C 67.882812 282.324219 68.222656 282.289062 68.558594 282.222656 C 68.894531 282.15625 69.21875 282.058594 69.539062 281.925781 C 69.855469 281.796875 70.15625 281.632812 70.441406 281.445312 C 70.726562 281.253906 70.988281 281.035156 71.230469 280.792969 C 71.472656 280.550781 71.691406 280.289062 71.878906 280.003906 C 72.070312 279.71875 72.230469 279.417969 72.363281 279.101562 C 72.492188 278.785156 72.59375 278.457031 72.660156 278.121094 C 72.726562 277.785156 72.761719 277.445312 72.761719 277.101562 C 72.761719 276.757812 72.726562 276.421875 72.660156 276.082031 C 72.59375 275.746094 72.492188 275.421875 72.363281 275.105469 C 72.230469 274.789062 72.070312 274.488281 71.878906 274.203125 C 71.691406 273.917969 71.472656 273.652344 71.230469 273.410156 C 70.988281 273.167969 70.726562 272.953125 70.441406 272.761719 C 70.15625 272.570312 69.855469 272.410156 69.539062 272.277344 C 69.21875 272.148438 68.894531 272.046875 68.558594 271.980469 C 68.222656 271.914062 67.882812 271.882812 67.539062 271.882812 C 67.195312 271.882812 66.855469 271.914062 66.519531 271.980469 C 66.183594 272.046875 65.859375 272.148438 65.542969 272.277344 C 65.222656 272.410156 64.921875 272.570312 64.636719 272.761719 C 64.351562 272.953125 64.089844 273.167969 63.847656 273.410156 C 63.605469 273.652344 63.386719 273.917969 63.199219 274.203125 C 63.007812 274.488281 62.847656 274.789062 62.714844 275.105469 C 62.585938 275.421875 62.484375 275.746094 62.417969 276.082031 C 62.351562 276.421875 62.316406 276.757812 62.316406 277.101562 Z M 62.316406 277.101562 "/><path style=" stroke:none;fill-rule:nonzero;fill:#f4a795;fill-opacity:1;" d="M 76.324219 228.308594 C 76.324219 228.652344 76.359375 228.992188 76.425781 229.328125 C 76.492188 229.664062 76.59375 229.992188 76.722656 230.308594 C 76.855469 230.625 77.015625 230.925781 77.207031 231.210938 C 77.394531 231.496094 77.613281 231.757812 77.855469 232 C 78.097656 232.242188 78.363281 232.460938 78.644531 232.652344 C 78.929688 232.839844 79.230469 233 79.550781 233.132812 C 79.867188 233.265625 80.191406 233.363281 80.527344 233.429688 C 80.863281 233.496094 81.203125 233.53125 81.546875 233.53125 C 81.890625 233.53125 82.230469 233.496094 82.566406 233.429688 C 82.902344 233.363281 83.226562 233.265625 83.546875 233.132812 C 83.863281 233 84.164062 232.839844 84.449219 232.652344 C 84.734375 232.460938 84.996094 232.242188 85.238281 232 C 85.480469 231.757812 85.699219 231.496094 85.886719 231.210938 C 86.078125 230.925781 86.238281 230.625 86.371094 230.308594 C 86.503906 229.992188 86.601562 229.664062 86.667969 229.328125 C 86.734375 228.992188 86.769531 228.652344 86.769531 228.308594 C 86.769531 227.964844 86.734375 227.625 86.667969 227.289062 C 86.601562 226.953125 86.503906 226.628906 86.371094 226.3125 C 86.238281 225.996094 86.078125 225.695312 85.886719 225.410156 C 85.699219 225.125 85.480469 224.859375 85.238281 224.617188 C 84.996094 224.375 84.734375 224.160156 84.449219 223.96875 C 84.164062 223.777344 83.863281 223.617188 83.546875 223.484375 C 83.226562 223.355469 82.902344 223.253906 82.566406 223.1875 C 82.230469 223.121094 81.890625 223.089844 81.546875 223.089844 C 81.203125 223.089844 80.863281 223.121094 80.527344 223.1875 C 80.191406 223.253906 79.867188 223.355469 79.550781 223.484375 C 79.230469 223.617188 78.929688 223.777344 78.644531 223.96875 C 78.363281 224.160156 78.097656 224.375 77.855469 224.617188 C 77.613281 224.859375 77.394531 225.125 77.207031 225.410156 C 77.015625 225.695312 76.855469 225.996094 76.722656 226.3125 C 76.59375 226.628906 76.492188 226.953125 76.425781 227.289062 C 76.359375 227.625 76.324219 227.964844 76.324219 228.308594 Z M 76.324219 228.308594 "/><path style=" stroke:none;fill-rule:nonzero;fill:#f4a795;fill-opacity:1;" d="M 112.851562 193.058594 C 112.851562 193.402344 112.886719 193.742188 112.953125 194.078125 C 113.019531 194.414062 113.117188 194.738281 113.25 195.054688 C 113.378906 195.375 113.542969 195.675781 113.730469 195.960938 C 113.921875 196.242188 114.136719 196.507812 114.378906 196.75 C 114.625 196.992188 114.886719 197.210938 115.171875 197.398438 C 115.457031 197.589844 115.757812 197.75 116.074219 197.882812 C 116.390625 198.011719 116.71875 198.113281 117.054688 198.179688 C 117.390625 198.246094 117.730469 198.28125 118.074219 198.28125 C 118.414062 198.28125 118.753906 198.246094 119.089844 198.179688 C 119.425781 198.113281 119.753906 198.011719 120.070312 197.882812 C 120.386719 197.75 120.6875 197.589844 120.972656 197.398438 C 121.257812 197.210938 121.523438 196.992188 121.765625 196.75 C 122.007812 196.507812 122.222656 196.242188 122.414062 195.960938 C 122.605469 195.675781 122.765625 195.375 122.898438 195.054688 C 123.027344 194.738281 123.125 194.414062 123.195312 194.078125 C 123.261719 193.742188 123.292969 193.402344 123.292969 193.058594 C 123.292969 192.714844 123.261719 192.375 123.195312 192.039062 C 123.125 191.703125 123.027344 191.378906 122.898438 191.058594 C 122.765625 190.742188 122.605469 190.441406 122.414062 190.15625 C 122.222656 189.871094 122.007812 189.609375 121.765625 189.367188 C 121.523438 189.125 121.257812 188.90625 120.972656 188.71875 C 120.6875 188.527344 120.386719 188.367188 120.070312 188.234375 C 119.753906 188.101562 119.425781 188.003906 119.089844 187.9375 C 118.753906 187.871094 118.414062 187.835938 118.074219 187.835938 C 117.730469 187.835938 117.390625 187.871094 117.054688 187.9375 C 116.71875 188.003906 116.390625 188.101562 116.074219 188.234375 C 115.757812 188.367188 115.457031 188.527344 115.171875 188.71875 C 114.886719 188.90625 114.625 189.125 114.378906 189.367188 C 114.136719 189.609375 113.921875 189.871094 113.730469 190.15625 C 113.542969 190.441406 113.378906 190.742188 113.25 191.058594 C 113.117188 191.378906 113.019531 191.703125 112.953125 192.039062 C 112.886719 192.375 112.851562 192.714844 112.851562 193.058594 Z M 112.851562 193.058594 "/><path style=" stroke:none;fill-rule:nonzero;fill:#f4a795;fill-opacity:1;" d="M 139.320312 278.183594 C 139.320312 278.960938 139.359375 279.734375 139.433594 280.507812 C 139.511719 281.28125 139.625 282.046875 139.777344 282.808594 C 139.929688 283.570312 140.117188 284.320312 140.34375 285.066406 C 140.566406 285.808594 140.828125 286.539062 141.125 287.253906 C 141.421875 287.972656 141.753906 288.671875 142.121094 289.359375 C 142.488281 290.042969 142.886719 290.707031 143.316406 291.355469 C 143.75 292 144.210938 292.621094 144.703125 293.222656 C 145.195312 293.824219 145.714844 294.398438 146.265625 294.945312 C 146.8125 295.496094 147.386719 296.015625 147.988281 296.507812 C 148.589844 297 149.210938 297.464844 149.859375 297.894531 C 150.503906 298.328125 151.167969 298.726562 151.851562 299.089844 C 152.539062 299.457031 153.238281 299.789062 153.957031 300.085938 C 154.671875 300.382812 155.402344 300.644531 156.148438 300.871094 C 156.890625 301.09375 157.640625 301.285156 158.402344 301.433594 C 159.164062 301.585938 159.933594 301.699219 160.703125 301.777344 C 161.476562 301.851562 162.253906 301.890625 163.027344 301.890625 C 163.804688 301.890625 164.578125 301.851562 165.351562 301.777344 C 166.125 301.699219 166.890625 301.585938 167.652344 301.433594 C 168.414062 301.285156 169.167969 301.09375 169.910156 300.871094 C 170.652344 300.644531 171.382812 300.382812 172.101562 300.085938 C 172.820312 299.789062 173.519531 299.457031 174.203125 299.089844 C 174.890625 298.726562 175.554688 298.328125 176.199219 297.894531 C 176.84375 297.464844 177.46875 297 178.070312 296.507812 C 178.667969 296.015625 179.242188 295.496094 179.792969 294.945312 C 180.339844 294.398438 180.863281 293.824219 181.355469 293.222656 C 181.847656 292.621094 182.308594 292 182.742188 291.355469 C 183.171875 290.707031 183.570312 290.042969 183.9375 289.359375 C 184.304688 288.671875 184.632812 287.972656 184.929688 287.253906 C 185.230469 286.539062 185.488281 285.808594 185.714844 285.066406 C 185.941406 284.320312 186.128906 283.570312 186.28125 282.808594 C 186.433594 282.046875 186.546875 281.28125 186.621094 280.507812 C 186.699219 279.734375 186.734375 278.960938 186.734375 278.183594 C 186.734375 277.40625 186.699219 276.632812 186.621094 275.859375 C 186.546875 275.085938 186.433594 274.320312 186.28125 273.558594 C 186.128906 272.796875 185.941406 272.042969 185.714844 271.300781 C 185.488281 270.558594 185.230469 269.828125 184.929688 269.109375 C 184.632812 268.394531 184.304688 267.691406 183.9375 267.007812 C 183.570312 266.324219 183.171875 265.65625 182.742188 265.011719 C 182.308594 264.367188 181.847656 263.742188 181.355469 263.144531 C 180.863281 262.542969 180.339844 261.96875 179.792969 261.417969 C 179.242188 260.871094 178.667969 260.347656 178.070312 259.855469 C 177.46875 259.363281 176.84375 258.902344 176.199219 258.472656 C 175.554688 258.039062 174.890625 257.640625 174.203125 257.273438 C 173.519531 256.910156 172.820312 256.578125 172.101562 256.28125 C 171.382812 255.984375 170.652344 255.722656 169.910156 255.496094 C 169.167969 255.269531 168.414062 255.082031 167.652344 254.929688 C 166.890625 254.78125 166.125 254.664062 165.351562 254.589844 C 164.578125 254.511719 163.804688 254.476562 163.027344 254.476562 C 162.253906 254.476562 161.476562 254.511719 160.703125 254.589844 C 159.933594 254.664062 159.164062 254.78125 158.402344 254.929688 C 157.640625 255.082031 156.890625 255.269531 156.148438 255.496094 C 155.402344 255.722656 154.671875 255.984375 153.957031 256.28125 C 153.238281 256.578125 152.539062 256.910156 151.851562 257.273438 C 151.167969 257.640625 150.503906 258.039062 149.859375 258.472656 C 149.210938 258.902344 148.589844 259.363281 147.988281 259.855469 C 147.386719 260.347656 146.8125 260.871094 146.265625 261.417969 C 145.714844 261.96875 145.195312 262.542969 144.703125 263.144531 C 144.210938 263.742188 143.75 264.367188 143.316406 265.011719 C 142.886719 265.65625 142.488281 266.324219 142.121094 267.007812 C 141.753906 267.691406 141.421875 268.394531 141.125 269.109375 C 140.828125 269.828125 140.566406 270.558594 140.34375 271.300781 C 140.117188 272.042969 139.929688 272.796875 139.777344 273.558594 C 139.625 274.320312 139.511719 275.085938 139.433594 275.859375 C 139.359375 276.632812 139.320312 277.40625 139.320312 278.183594 Z M 139.320312 278.183594 "/><path style=" stroke:none;fill-rule:nonzero;fill:#7c0a02;fill-opacity:1;" d="M 163.496094 288.691406 L 179.820312 272.367188 C 180.988281 271.195312 180.988281 269.304688 179.820312 268.136719 C 178.652344 266.96875 176.761719 266.96875 175.59375 268.136719 L 163.496094 280.234375 L 114.679688 231.417969 C 113.511719 230.25 111.617188 230.253906 110.449219 231.417969 C 109.28125 232.585938 109.28125 234.480469 110.449219 235.648438 Z M 163.496094 288.691406 "/><path style=" stroke:none;fill-rule:nonzero;fill:#7c0a02;fill-opacity:1;" d="M 745.65625 432.589844 C 749.148438 433.941406 752.660156 433.859375 753.503906 432.332031 L 783.179688 378.464844 C 786.800781 371.894531 783.445312 363.320312 775.308594 360.167969 L 775.304688 360.167969 C 767.167969 357.019531 758.667969 361.007812 756.652344 368.199219 L 740.136719 427.15625 C 739.667969 428.832031 742.160156 431.238281 745.65625 432.589844 Z M 745.65625 432.589844 "/><path style=" stroke:none;fill-rule:nonzero;fill:#7c0a02;fill-opacity:1;" d="M 726.660156 455.273438 C 726.660156 455.945312 726.726562 456.609375 726.855469 457.265625 C 726.988281 457.921875 727.179688 458.5625 727.4375 459.183594 C 727.695312 459.800781 728.007812 460.390625 728.382812 460.949219 C 728.753906 461.503906 729.175781 462.019531 729.652344 462.496094 C 730.125 462.96875 730.640625 463.394531 731.199219 463.765625 C 731.757812 464.136719 732.34375 464.453125 732.964844 464.710938 C 733.585938 464.964844 734.222656 465.160156 734.882812 465.292969 C 735.539062 465.421875 736.203125 465.488281 736.875 465.488281 C 737.542969 465.488281 738.207031 465.421875 738.867188 465.292969 C 739.523438 465.160156 740.164062 464.964844 740.78125 464.710938 C 741.402344 464.453125 741.992188 464.136719 742.546875 463.765625 C 743.105469 463.394531 743.621094 462.96875 744.097656 462.496094 C 744.570312 462.019531 744.992188 461.503906 745.367188 460.949219 C 745.738281 460.390625 746.054688 459.800781 746.3125 459.183594 C 746.566406 458.5625 746.761719 457.921875 746.890625 457.265625 C 747.023438 456.609375 747.089844 455.945312 747.089844 455.273438 C 747.089844 454.601562 747.023438 453.9375 746.890625 453.28125 C 746.761719 452.621094 746.566406 451.984375 746.3125 451.363281 C 746.054688 450.746094 745.738281 450.15625 745.367188 449.597656 C 744.992188 449.039062 744.570312 448.523438 744.097656 448.050781 C 743.621094 447.578125 743.105469 447.152344 742.546875 446.78125 C 741.992188 446.40625 741.402344 446.09375 740.78125 445.835938 C 740.164062 445.578125 739.523438 445.386719 738.867188 445.253906 C 738.207031 445.125 737.542969 445.058594 736.875 445.058594 C 736.203125 445.058594 735.539062 445.125 734.882812 445.253906 C 734.222656 445.386719 733.585938 445.578125 732.964844 445.835938 C 732.34375 446.09375 731.757812 446.40625 731.199219 446.78125 C 730.640625 447.152344 730.125 447.578125 729.652344 448.050781 C 729.175781 448.523438 728.753906 449.039062 728.382812 449.597656 C 728.007812 450.15625 727.695312 450.746094 727.4375 451.363281 C 727.179688 451.984375 726.988281 452.621094 726.855469 453.28125 C 726.726562 453.9375 726.660156 454.601562 726.660156 455.273438 Z M 726.660156 455.273438 "/><path style=" stroke:none;fill-rule:nonzero;fill:#f4a795;fill-opacity:1;" d="M 726.628906 296.554688 C 730.371094 296.597656 733.632812 295.292969 733.890625 293.566406 L 742.851562 232.726562 C 743.945312 225.304688 737.804688 218.441406 729.078125 218.335938 C 720.351562 218.230469 713.78125 224.941406 714.410156 232.382812 L 719.558594 293.394531 C 719.703125 295.125 722.882812 296.507812 726.628906 296.554688 Z M 726.628906 296.554688 "/><path style=" stroke:none;fill-rule:nonzero;fill:#f4a795;fill-opacity:1;" d="M 716.121094 320.875 C 716.121094 321.546875 716.1875 322.210938 716.316406 322.867188 C 716.449219 323.527344 716.640625 324.164062 716.898438 324.785156 C 717.15625 325.40625 717.46875 325.992188 717.84375 326.550781 C 718.214844 327.109375 718.636719 327.625 719.113281 328.097656 C 719.585938 328.574219 720.101562 328.996094 720.660156 329.367188 C 721.21875 329.742188 721.808594 330.054688 722.425781 330.3125 C 723.046875 330.570312 723.683594 330.761719 724.34375 330.894531 C 725 331.023438 725.664062 331.089844 726.335938 331.089844 C 727.007812 331.089844 727.671875 331.023438 728.328125 330.894531 C 728.984375 330.761719 729.625 330.570312 730.246094 330.3125 C 730.863281 330.054688 731.453125 329.742188 732.011719 329.367188 C 732.566406 328.996094 733.082031 328.574219 733.558594 328.097656 C 734.03125 327.625 734.457031 327.109375 734.828125 326.550781 C 735.199219 325.992188 735.515625 325.40625 735.773438 324.785156 C 736.027344 324.164062 736.222656 323.527344 736.351562 322.867188 C 736.484375 322.210938 736.550781 321.546875 736.550781 320.875 C 736.550781 320.207031 736.484375 319.542969 736.351562 318.882812 C 736.222656 318.226562 736.027344 317.585938 735.773438 316.96875 C 735.515625 316.347656 735.199219 315.757812 734.828125 315.203125 C 734.457031 314.644531 734.03125 314.128906 733.558594 313.652344 C 733.082031 313.179688 732.566406 312.757812 732.011719 312.382812 C 731.453125 312.011719 730.863281 311.695312 730.246094 311.441406 C 729.625 311.183594 728.984375 310.988281 728.328125 310.859375 C 727.671875 310.726562 727.007812 310.664062 726.335938 310.664062 C 725.664062 310.664062 725 310.726562 724.34375 310.859375 C 723.683594 310.988281 723.046875 311.183594 722.425781 311.441406 C 721.808594 311.695312 721.21875 312.011719 720.660156 312.382812 C 720.101562 312.757812 719.585938 313.179688 719.113281 313.652344 C 718.636719 314.128906 718.214844 314.644531 717.84375 315.203125 C 717.46875 315.757812 717.15625 316.347656 716.898438 316.96875 C 716.640625 317.585938 716.449219 318.226562 716.316406 318.882812 C 716.1875 319.542969 716.121094 320.207031 716.121094 320.875 Z M 716.121094 320.875 "/><path style=" stroke:none;fill-rule:nonzero;fill:#7c0a02;fill-opacity:1;" d="M 383.300781 193.046875 C 386.824219 191.332031 389.261719 188.582031 388.6875 186.847656 L 368.550781 125.757812 C 366.097656 118.308594 357.136719 114.769531 348.925781 118.761719 C 340.71875 122.753906 337.722656 132.105469 341.796875 138.769531 L 375.207031 193.40625 C 376.15625 194.957031 379.777344 194.761719 383.300781 193.046875 Z M 383.300781 193.046875 "/><path style=" stroke:none;fill-rule:nonzero;fill:#7c0a02;fill-opacity:1;" d="M 383.742188 215.925781 C 383.742188 216.625 383.8125 217.320312 383.949219 218.007812 C 384.085938 218.695312 384.289062 219.363281 384.558594 220.011719 C 384.824219 220.660156 385.15625 221.277344 385.542969 221.859375 C 385.933594 222.445312 386.378906 222.984375 386.871094 223.480469 C 387.367188 223.976562 387.910156 224.417969 388.492188 224.808594 C 389.074219 225.199219 389.691406 225.527344 390.339844 225.796875 C 390.988281 226.0625 391.65625 226.265625 392.34375 226.402344 C 393.03125 226.539062 393.726562 226.609375 394.425781 226.609375 C 395.128906 226.609375 395.824219 226.539062 396.511719 226.402344 C 397.199219 226.265625 397.867188 226.0625 398.515625 225.796875 C 399.164062 225.527344 399.78125 225.199219 400.363281 224.808594 C 400.945312 224.417969 401.484375 223.976562 401.980469 223.480469 C 402.476562 222.984375 402.921875 222.445312 403.3125 221.859375 C 403.699219 221.277344 404.03125 220.660156 404.296875 220.011719 C 404.566406 219.363281 404.769531 218.695312 404.90625 218.007812 C 405.042969 217.320312 405.109375 216.625 405.109375 215.925781 C 405.109375 215.222656 405.042969 214.527344 404.90625 213.839844 C 404.769531 213.152344 404.566406 212.484375 404.296875 211.835938 C 404.03125 211.1875 403.699219 210.574219 403.3125 209.988281 C 402.921875 209.40625 402.476562 208.867188 401.980469 208.371094 C 401.484375 207.875 400.945312 207.429688 400.363281 207.042969 C 399.78125 206.652344 399.164062 206.324219 398.515625 206.054688 C 397.867188 205.785156 397.199219 205.582031 396.511719 205.445312 C 395.824219 205.308594 395.128906 205.242188 394.425781 205.242188 C 393.726562 205.242188 393.03125 205.308594 392.34375 205.445312 C 391.65625 205.582031 390.988281 205.785156 390.339844 206.054688 C 389.691406 206.324219 389.074219 206.652344 388.492188 207.042969 C 387.910156 207.429688 387.367188 207.875 386.871094 208.371094 C 386.378906 208.867188 385.933594 209.40625 385.542969 209.988281 C 385.15625 210.574219 384.824219 211.1875 384.558594 211.835938 C 384.289062 212.484375 384.085938 213.152344 383.949219 213.839844 C 383.8125 214.527344 383.742188 215.222656 383.742188 215.925781 Z M 383.742188 215.925781 "/><path style=" stroke:none;fill-rule:nonzero;fill:#ff5757;fill-opacity:1;" d="M 706.261719 634.394531 L 729.640625 621.597656 C 730.320312 621.226562 731.175781 621.523438 731.476562 622.242188 L 741.828125 646.800781 C 742.304688 647.9375 743.949219 647.84375 744.296875 646.65625 L 751.777344 621.078125 C 751.996094 620.332031 752.808594 619.9375 753.53125 620.234375 L 778.214844 630.28125 C 779.355469 630.746094 780.453125 629.519531 779.859375 628.4375 L 767.0625 605.058594 C 766.6875 604.375 766.988281 603.523438 767.703125 603.21875 L 792.261719 592.871094 C 793.398438 592.390625 793.304688 590.75 792.121094 590.402344 L 766.542969 582.921875 C 765.796875 582.703125 765.402344 581.886719 765.695312 581.167969 L 775.742188 556.484375 C 776.210938 555.339844 774.980469 554.246094 773.898438 554.839844 L 750.523438 567.636719 C 749.839844 568.007812 748.984375 567.710938 748.683594 566.996094 L 738.335938 542.4375 C 737.855469 541.296875 736.210938 541.390625 735.867188 542.578125 L 728.386719 568.15625 C 728.167969 568.902344 727.351562 569.296875 726.632812 569.003906 L 701.949219 558.953125 C 700.804688 558.488281 699.710938 559.714844 700.300781 560.800781 L 713.097656 584.175781 C 713.472656 584.859375 713.175781 585.714844 712.457031 586.015625 L 687.898438 596.363281 C 686.761719 596.84375 686.855469 598.484375 688.039062 598.832031 L 713.617188 606.3125 C 714.363281 606.53125 714.757812 607.347656 714.464844 608.066406 L 704.417969 632.75 C 703.953125 633.894531 705.179688 634.988281 706.261719 634.394531 Z M 706.261719 634.394531 "/><path style=" stroke:none;fill-rule:nonzero;fill:#f4a795;fill-opacity:1;" d="M 461.429688 152.535156 L 482.1875 141.171875 C 482.792969 140.839844 483.550781 141.105469 483.820312 141.742188 L 493.007812 163.546875 C 493.433594 164.558594 494.890625 164.476562 495.199219 163.421875 L 501.84375 140.710938 C 502.035156 140.046875 502.761719 139.699219 503.398438 139.957031 L 525.320312 148.878906 C 526.332031 149.292969 527.304688 148.203125 526.78125 147.242188 L 515.417969 126.484375 C 515.085938 125.878906 515.351562 125.117188 515.984375 124.851562 L 537.792969 115.660156 C 538.804688 115.234375 538.71875 113.777344 537.667969 113.46875 L 514.957031 106.828125 C 514.292969 106.632812 513.941406 105.910156 514.203125 105.269531 L 523.125 83.351562 C 523.539062 82.335938 522.449219 81.363281 521.488281 81.890625 L 500.730469 93.253906 C 500.125 93.585938 499.363281 93.320312 499.097656 92.683594 L 489.90625 70.875 C 489.480469 69.867188 488.023438 69.949219 487.714844 71 L 481.070312 93.714844 C 480.878906 94.378906 480.152344 94.726562 479.515625 94.464844 L 457.597656 85.542969 C 456.582031 85.128906 455.609375 86.222656 456.136719 87.183594 L 467.5 107.941406 C 467.828125 108.546875 467.566406 109.304688 466.929688 109.574219 L 445.121094 118.761719 C 444.109375 119.1875 444.195312 120.648438 445.246094 120.953125 L 467.960938 127.597656 C 468.621094 127.792969 468.972656 128.515625 468.710938 129.15625 L 459.789062 151.074219 C 459.375 152.089844 460.464844 153.0625 461.429688 152.535156 Z M 461.429688 152.535156 "/><path style=" stroke:none;fill-rule:nonzero;fill:#7c0a02;fill-opacity:1;" d="M 178.527344 560.375 L 199.285156 549.011719 C 199.890625 548.679688 200.648438 548.945312 200.917969 549.582031 L 210.105469 571.390625 C 210.53125 572.398438 211.992188 572.316406 212.300781 571.265625 L 218.941406 548.550781 C 219.136719 547.886719 219.859375 547.539062 220.5 547.800781 L 242.417969 556.722656 C 243.433594 557.136719 244.40625 556.042969 243.878906 555.082031 L 232.515625 534.324219 C 232.183594 533.71875 232.449219 532.960938 233.085938 532.691406 L 254.894531 523.503906 C 255.902344 523.078125 255.820312 521.617188 254.765625 521.3125 L 232.054688 514.667969 C 231.390625 514.472656 231.042969 513.75 231.300781 513.109375 L 240.226562 491.191406 C 240.636719 490.175781 239.546875 489.203125 238.585938 489.730469 L 217.828125 501.09375 C 217.222656 501.425781 216.464844 501.160156 216.195312 500.523438 L 207.007812 478.71875 C 206.582031 477.707031 205.121094 477.789062 204.8125 478.84375 L 198.171875 501.554688 C 197.976562 502.21875 197.253906 502.566406 196.613281 502.308594 L 174.695312 493.386719 C 173.679688 492.972656 172.707031 494.0625 173.234375 495.023438 L 184.597656 515.78125 C 184.929688 516.386719 184.664062 517.148438 184.027344 517.414062 L 162.21875 526.605469 C 161.210938 527.03125 161.292969 528.488281 162.347656 528.796875 L 185.058594 535.4375 C 185.722656 535.632812 186.070312 536.355469 185.8125 536.996094 L 176.886719 558.914062 C 176.476562 559.929688 177.566406 560.902344 178.527344 560.375 Z M 178.527344 560.375 "/><path style=" stroke:none;fill-rule:nonzero;fill:#ff5757;fill-opacity:1;" d="M 618.828125 301.558594 C 619.597656 301.558594 620.367188 301.53125 621.132812 301.46875 C 626.957031 301.023438 632.738281 298.699219 637.410156 294.921875 C 638.480469 294.054688 638.648438 292.484375 637.78125 291.414062 C 636.917969 290.34375 635.347656 290.175781 634.273438 291.042969 C 630.378906 294.191406 625.578125 296.125 620.753906 296.496094 C 612.121094 297.140625 603.042969 293.347656 596.464844 286.445312 C 607.1875 278.371094 613.195312 263.214844 610.617188 248.601562 C 609.421875 241.835938 605.519531 234.09375 598.148438 232.667969 C 592.710938 231.617188 586.632812 234.667969 583.363281 240.097656 C 580.25 245.269531 579.976562 251.367188 580.042969 255.503906 C 580.21875 266.71875 583.378906 277.136719 589 285.164062 C 588.519531 285.390625 588.03125 285.597656 587.535156 285.792969 C 575.414062 290.519531 559.640625 285.046875 551.628906 273.328125 C 551.378906 272.960938 551.132812 272.589844 550.898438 272.210938 C 552.289062 271.863281 553.660156 271.421875 555.003906 270.882812 C 569.679688 265.015625 578.910156 248.375 576.015625 232.988281 C 574.476562 224.796875 568.433594 216.589844 559.894531 216.769531 C 553.253906 216.90625 547.203125 222.347656 543.710938 231.328125 C 538.917969 243.644531 538.878906 257.070312 543.296875 268.191406 C 533.386719 268.367188 523.191406 263.730469 517.378906 255.648438 C 514.394531 251.5 512.609375 246.558594 512.003906 241.441406 C 519.464844 240.890625 526.730469 238.164062 532.402344 233.199219 C 536.332031 229.753906 538.765625 225.988281 539.640625 222.003906 C 540.785156 216.789062 538.914062 211.457031 534.988281 208.734375 C 528.210938 204.039062 519.214844 208.449219 514.195312 214.980469 C 509.484375 221.105469 507.023438 228.808594 506.835938 236.539062 C 499.355469 236.019531 492.058594 232.980469 486.859375 227.503906 C 483.011719 223.453125 480.433594 218.160156 479.40625 212.191406 C 479.171875 210.832031 477.875 209.917969 476.527344 210.15625 C 475.167969 210.390625 474.257812 211.679688 474.492188 213.039062 C 475.6875 219.980469 478.714844 226.171875 483.242188 230.9375 C 489.414062 237.441406 498.136719 240.992188 507.027344 241.484375 C 507.65625 247.632812 509.753906 253.589844 513.328125 258.558594 C 520.640625 268.730469 533.40625 274.15625 545.625 273.097656 C 546.207031 274.140625 546.835938 275.160156 547.511719 276.144531 C 556.933594 289.921875 574.921875 296.0625 589.347656 290.4375 C 590.316406 290.0625 591.257812 289.632812 592.175781 289.15625 C 599.257812 296.964844 609.132812 301.558594 618.828125 301.558594 Z M 595.921875 237.441406 C 596.347656 237.441406 596.773438 237.480469 597.199219 237.5625 C 602.089844 238.511719 604.796875 244.335938 605.703125 249.46875 C 607.980469 262.363281 602.703125 275.695312 593.296875 282.605469 C 588.113281 275.351562 585.191406 265.789062 585.03125 255.425781 C 584.941406 249.824219 585.769531 245.773438 587.636719 242.667969 C 589.292969 239.917969 592.542969 237.441406 595.921875 237.441406 Z M 560.152344 221.753906 C 565.789062 221.753906 570 227.988281 571.113281 233.910156 C 573.539062 246.816406 565.484375 261.324219 553.152344 266.25 C 551.636719 266.855469 550.070312 267.316406 548.46875 267.636719 C 543.964844 257.445312 543.832031 244.777344 548.359375 233.136719 C 549.386719 230.503906 553.25 221.894531 559.996094 221.757812 C 560.046875 221.753906 560.101562 221.753906 560.152344 221.753906 Z M 528.703125 211.808594 C 529.945312 211.808594 531.121094 212.125 532.148438 212.835938 C 534.394531 214.390625 535.472656 217.722656 534.765625 220.9375 C 534.128906 223.859375 532.226562 226.71875 529.117188 229.445312 C 524.296875 233.667969 518.125 236.007812 511.789062 236.515625 C 511.976562 229.882812 514.105469 223.28125 518.148438 218.019531 C 520.828125 214.539062 525.054688 211.808594 528.703125 211.808594 Z M 528.703125 211.808594 "/><path style=" stroke:none;fill-rule:nonzero;fill:#ff5757;fill-opacity:1;" d="M 116.554688 730.976562 C 119.425781 730.976562 122.238281 730.527344 124.902344 729.628906 C 131.679688 727.339844 137.175781 722.21875 140.511719 715.945312 C 145.175781 717.550781 150.183594 718.03125 154.984375 717.113281 C 164.800781 715.230469 173.019531 707.808594 176.34375 698.609375 C 177.292969 698.535156 178.242188 698.421875 179.179688 698.265625 C 192.3125 696.066406 202.792969 685.105469 203.558594 672.773438 C 203.609375 671.945312 203.617188 671.121094 203.578125 670.292969 C 212.246094 667.589844 219.289062 661.273438 222.207031 653.464844 C 223.835938 649.097656 224.089844 644.132812 222.925781 639.484375 C 222.65625 638.421875 221.574219 637.765625 220.511719 638.039062 C 219.445312 638.308594 218.796875 639.386719 219.066406 640.453125 C 220.035156 644.328125 219.828125 648.453125 218.480469 652.070312 C 216.058594 658.542969 210.261719 663.832031 203.054688 666.28125 C 200.804688 655.8125 191.851562 646.378906 180.40625 643.34375 C 175.101562 641.9375 168.195312 642.171875 164.691406 647.027344 C 162.101562 650.609375 162.277344 656.035156 165.109375 660.222656 C 167.808594 664.210938 172.132812 666.453125 175.148438 667.792969 C 183.324219 671.425781 191.925781 672.632812 199.625 671.257812 C 199.625 671.679688 199.613281 672.105469 199.585938 672.527344 C 198.945312 682.886719 189.691406 692.46875 178.519531 694.339844 C 178.171875 694.398438 177.820312 694.449219 177.46875 694.496094 C 177.683594 693.371094 177.824219 692.226562 177.886719 691.074219 C 178.5625 678.484375 169.605469 666.222656 157.5 663.15625 C 151.054688 661.519531 143.09375 663.140625 140.351562 669.386719 C 138.222656 674.238281 140.132812 680.445312 145.464844 685.984375 C 152.773438 693.585938 162.476562 698.117188 172.011719 698.644531 C 168.824219 705.875 162.035156 711.707031 154.234375 713.203125 C 150.234375 713.972656 146.058594 713.605469 142.148438 712.328125 C 144.253906 706.742188 144.71875 700.566406 143.023438 694.796875 C 141.851562 690.800781 139.941406 687.777344 137.351562 685.804688 C 133.957031 683.226562 129.46875 682.789062 126.183594 684.722656 C 120.511719 688.054688 120.6875 696.042969 123.730469 701.871094 C 126.585938 707.332031 131.335938 711.699219 136.867188 714.425781 C 133.984375 719.667969 129.335938 723.929688 123.628906 725.859375 C 119.40625 727.285156 114.710938 727.371094 110.042969 726.117188 C 108.984375 725.828125 107.890625 726.457031 107.605469 727.519531 C 107.316406 728.582031 107.949219 729.671875 109.007812 729.960938 C 111.527344 730.636719 114.066406 730.976562 116.554688 730.976562 Z M 130.738281 687.507812 C 132.15625 687.507812 133.675781 688.011719 134.941406 688.972656 C 136.84375 690.417969 138.277344 692.753906 139.207031 695.917969 C 140.648438 700.828125 140.269531 706.074219 138.511719 710.832031 C 133.773438 708.472656 129.710938 704.71875 127.257812 700.027344 C 125.082031 695.859375 124.820312 690.136719 128.199219 688.15625 C 128.9375 687.71875 129.816406 687.507812 130.738281 687.507812 Z M 152.71875 666.542969 C 154.007812 666.542969 155.308594 666.707031 156.523438 667.015625 C 166.679688 669.585938 174.480469 680.285156 173.910156 690.863281 C 173.839844 692.160156 173.648438 693.453125 173.34375 694.714844 C 164.457031 694.558594 155.238281 690.40625 148.332031 683.226562 C 146.769531 681.601562 141.835938 675.914062 144 670.988281 C 145.355469 667.886719 149.003906 666.542969 152.71875 666.542969 Z M 199.210938 667.285156 C 192.230469 668.605469 184.324219 667.515625 176.765625 664.15625 C 172.683594 662.34375 170.023438 660.382812 168.40625 657.992188 C 166.789062 655.601562 166.101562 651.871094 167.917969 649.355469 C 170.238281 646.136719 175.363281 646.125 179.386719 647.191406 C 189.484375 649.871094 197.367188 658.164062 199.210938 667.285156 Z M 199.210938 667.285156 "/><path style=" stroke:none;fill-rule:nonzero;fill:#f4a795;fill-opacity:1;" d="M 196.378906 104.714844 C 235.875 51.96875 235.875 51.96875 196.378906 104.714844 C 235.589844 51.753906 235.183594 51.8125 287.714844 91.59375 C 234.96875 52.097656 234.96875 52.097656 287.714844 91.59375 C 234.753906 52.382812 234.8125 52.789062 274.59375 0.253906 C 235.097656 53 235.097656 53 274.59375 0.253906 C 235.386719 53.214844 235.789062 53.15625 183.257812 13.375 C 236.003906 52.871094 236.003906 52.871094 183.257812 13.375 C 236.21875 52.585938 236.160156 52.179688 196.378906 104.714844 Z M 196.378906 104.714844 "/><g clip-rule="nonzero" clip-path="url(#bf333fefbc)"><path style=" stroke:none;fill-rule:nonzero;fill:#f4a795;fill-opacity:1;" d="M 4.121094 509.660156 C 72.734375 572.71875 72.679688 571.429688 9.617188 640.042969 C 72.679688 571.429688 71.386719 571.484375 140 634.542969 C 71.386719 571.484375 71.441406 572.773438 134.503906 504.164062 C 71.441406 572.773438 72.734375 572.71875 4.121094 509.660156 Z M 4.121094 509.660156 "/></g><g clip-rule="nonzero" clip-path="url(#3e8435f85d)"><path style=" stroke:none;fill-rule:nonzero;fill:#7c0a02;fill-opacity:1;" d="M 561.789062 134.046875 C 685.050781 149.65625 684.15625 148.324219 652.398438 268.449219 C 684.15625 148.324219 682.636719 149.351562 805.898438 164.960938 C 682.636719 149.351562 683.53125 150.679688 715.289062 30.558594 C 683.53125 150.679688 685.050781 149.65625 561.789062 134.046875 Z M 561.789062 134.046875 "/></g><path style=" stroke:none;fill-rule:nonzero;fill:#f4a795;fill-opacity:1;" d="M 465.007812 756.808594 L 531.8125 756.808594 L 531.8125 899.640625 L 329.46875 899.640625 L 329.46875 756.808594 Z M 465.007812 756.808594 "/><g mask="url(#82b8ccfdac)" transform="matrix(1,0,0,1,328,760)"><g clip-path="url(#b975bbf647)"><g clip-rule="nonzero" clip-path="url(#fa09b2822e)"><path style=" stroke:none;fill-rule:nonzero;fill:#f5faf4;fill-opacity:1;" d="M 1.472656 0.824219 L 1.472656 139.652344 L 118.085938 139.652344 L 118.085938 130.308594 L 137.003906 105.832031 L 137.003906 7.023438 L 19.707031 7.023438 C 12.84375 7.023438 6.515625 4.714844 1.472656 0.824219 Z M 1.472656 0.824219 "/></g></g><mask id="82b8ccfdac"><g filter="url(#35f9905723)"><rect x="0" width="810" y="0" height="899.99999" style="fill:#000000;fill-opacity:0.25;stroke:none;"/></g></mask></g><path style=" stroke:none;fill-rule:nonzero;fill:#ff5757;fill-opacity:1;" d="M 256.808594 677.605469 L 274.734375 504.136719 L 275.246094 504.230469 C 278.296875 483.476562 296.125 467.527344 317.730469 467.527344 L 514.011719 467.527344 C 517.265625 467.527344 520.402344 467.996094 523.402344 468.804688 C 536.746094 469.726562 549.476562 476.800781 557.046875 489.050781 C 558.734375 491.777344 560.046875 494.621094 561.0625 497.527344 L 561.078125 497.519531 L 584.53125 553.308594 L 636.464844 546.304688 L 649.902344 674.023438 C 652.792969 695.433594 637.777344 715.128906 616.367188 718.019531 C 606.152344 719.394531 596.347656 716.664062 588.550781 711.136719 C 577.179688 709.804688 566.5 703.503906 560.011719 693.011719 C 558.578125 690.691406 557.421875 688.277344 556.527344 685.808594 L 550.1875 672.710938 L 550.1875 737.050781 C 550.1875 753.609375 536.765625 767.027344 520.210938 767.027344 L 347.703125 767.027344 C 331.148438 767.027344 317.730469 753.609375 317.730469 737.050781 L 317.730469 722.207031 L 304.128906 723.238281 C 301.144531 723.972656 298.042969 724.40625 294.828125 724.40625 C 293.59375 724.40625 292.378906 724.332031 291.171875 724.222656 L 288.742188 724.40625 L 288.703125 723.875 C 270.167969 720.933594 255.984375 704.925781 255.984375 685.5625 C 255.984375 682.835938 256.273438 680.175781 256.808594 677.605469 Z M 256.808594 677.605469 "/><path style=" stroke:none;fill-rule:nonzero;fill:#7c0a02;fill-opacity:1;" d="M 339.144531 320.613281 C 339.144531 300.238281 355.660156 283.722656 376.039062 283.722656 C 378.664062 283.722656 381.21875 284.003906 383.6875 284.527344 C 389.9375 273.03125 402.117188 265.230469 416.121094 265.230469 C 424.863281 265.230469 432.878906 268.285156 439.199219 273.363281 C 444.019531 271.054688 449.398438 269.722656 455.097656 269.722656 C 475.472656 269.722656 491.992188 286.238281 491.992188 306.617188 C 491.992188 322.914062 481.414062 336.714844 466.757812 341.597656 C 468.988281 347.847656 470.210938 354.574219 470.210938 361.589844 C 470.210938 394.433594 443.585938 421.054688 410.746094 421.054688 C 377.902344 421.054688 351.277344 394.433594 351.277344 361.589844 C 351.277344 357.308594 351.742188 353.132812 352.601562 349.109375 C 344.382812 342.339844 339.144531 332.089844 339.144531 320.613281 Z M 339.144531 320.613281 "/><path style=" stroke:none;fill-rule:nonzero;fill:#f4a795;fill-opacity:1;" d="M 586.539062 500.617188 L 588.453125 560.433594 C 588.457031 560.558594 588.566406 560.660156 588.691406 560.652344 L 630.605469 559.140625 C 630.742188 559.136719 630.84375 559.011719 630.824219 558.875 L 626.289062 529.40625 C 625.957031 527.246094 627.050781 525.117188 629 524.125 L 639.246094 518.921875 C 644.453125 516.277344 648.652344 511.996094 651.199219 506.738281 L 660.339844 487.875 C 662.28125 483.875 662.730469 479.3125 661.613281 475.011719 L 658.902344 464.59375 C 658.902344 464.585938 658.898438 464.574219 658.898438 464.566406 L 657.796875 455.300781 C 657.429688 452.230469 655.238281 449.6875 652.253906 448.871094 C 650.5625 448.410156 649.023438 447.503906 647.796875 446.25 L 644.320312 442.683594 C 639.953125 438.203125 632.742188 438.230469 628.40625 442.742188 L 624.886719 446.402344 C 624.882812 446.410156 624.875 446.417969 624.871094 446.421875 L 588.867188 493.378906 C 587.277344 495.449219 586.457031 498.007812 586.539062 500.617188 Z M 586.539062 500.617188 "/><path style=" stroke:none;fill-rule:nonzero;fill:#7c0a02;fill-opacity:1;" d="M 667.480469 507.515625 L 592.902344 416.902344 C 591.484375 415.179688 591.5 412.796875 592.933594 411.613281 C 594.386719 410.417969 596.726562 410.863281 598.144531 412.585938 L 672.722656 503.203125 L 673.726562 505.433594 L 677.167969 513.09375 C 677.4375 513.699219 676.871094 514.160156 676.332031 513.78125 L 669.476562 508.933594 Z M 667.480469 507.515625 "/><path style=" stroke:none;fill-rule:nonzero;fill:#f4a795;fill-opacity:1;" d="M 631.824219 444.957031 C 629.117188 455.597656 623.359375 465.21875 615.257812 472.632812 L 613.378906 474.351562 C 610.058594 477.394531 609.625 482.472656 612.382812 486.03125 L 615.632812 490.226562 C 621.582031 497.90625 620.355469 508.925781 612.863281 515.109375 L 612.847656 515.121094 C 608.335938 518.84375 601.691406 518.332031 597.800781 513.964844 L 591.109375 506.449219 C 586.734375 501.535156 584.601562 495.019531 585.21875 488.46875 C 585.917969 481.082031 589.304688 474.203125 594.738281 469.148438 L 622.054688 443.734375 C 624.25 441.6875 627.398438 441.023438 630.234375 442.003906 C 631.449219 442.425781 632.140625 443.707031 631.824219 444.957031 Z M 631.824219 444.957031 "/><g mask="url(#ee50d5dad8)" transform="matrix(1,0,0,1,583,441)"><g clip-path="url(#77ed158aac)"><g clip-rule="nonzero" clip-path="url(#8288b2b8ea)"><path style=" stroke:none;fill-rule:nonzero;fill:#f5faf4;fill-opacity:1;" d="M 48.824219 3.957031 C 46.117188 14.597656 40.359375 24.21875 32.257812 31.632812 L 30.378906 33.351562 C 27.058594 36.394531 26.625 41.472656 29.382812 45.03125 L 32.632812 49.226562 C 38.582031 56.90625 37.355469 67.925781 29.863281 74.109375 L 29.847656 74.121094 C 25.335938 77.84375 18.691406 77.332031 14.800781 72.964844 L 8.109375 65.449219 C 3.734375 60.535156 1.601562 54.019531 2.21875 47.46875 C 2.917969 40.082031 6.304688 33.203125 11.738281 28.148438 L 39.054688 2.734375 C 41.25 0.6875 44.398438 0.0234375 47.234375 1.003906 C 48.449219 1.425781 49.140625 2.707031 48.824219 3.957031 Z M 48.824219 3.957031 "/></g></g><mask id="ee50d5dad8"><g filter="url(#35f9905723)"><rect x="0" width="810" y="0" height="899.99999" style="fill:#000000;fill-opacity:0.25;stroke:none;"/></g></mask></g><path style=" stroke:none;fill-rule:nonzero;fill:#7c0a02;fill-opacity:1;" d="M 505.152344 709.601562 L 614.433594 706.789062 C 618.449219 706.683594 622.632812 703.316406 623.773438 699.269531 L 666.882812 546.585938 C 668.027344 542.535156 665.699219 539.339844 661.679688 539.441406 L 552.402344 542.257812 C 548.382812 542.359375 544.203125 545.726562 543.058594 549.773438 L 499.949219 702.457031 C 498.808594 706.507812 501.136719 709.703125 505.152344 709.601562 Z M 505.152344 709.601562 "/><path style=" stroke:none;fill-rule:nonzero;fill:#7c0a02;fill-opacity:1;" d="M 511.386719 709.441406 L 620.667969 706.625 C 624.683594 706.523438 628.867188 703.15625 630.011719 699.109375 L 673.117188 546.425781 C 674.261719 542.375 671.933594 539.179688 667.914062 539.28125 L 558.636719 542.09375 C 554.617188 542.199219 550.4375 545.566406 549.292969 549.613281 L 506.183594 702.296875 C 505.042969 706.347656 507.371094 709.542969 511.386719 709.441406 Z M 511.386719 709.441406 "/><g mask="url(#9c09b88881)" transform="matrix(1,0,0,1,504,537)"><g clip-path="url(#3a56fc9365)"><g clip-rule="nonzero" clip-path="url(#70af20a41e)"><path style=" stroke:none;fill-rule:nonzero;fill:#f5faf4;fill-opacity:1;" d="M 7.394531 172.433594 L 116.675781 169.632812 C 120.675781 169.527344 124.863281 166.148438 126.019531 162.109375 L 169.117188 9.429688 C 170.269531 5.367188 167.941406 2.183594 163.921875 2.289062 L 54.640625 5.089844 C 50.621094 5.195312 46.429688 8.574219 45.296875 12.613281 L 22.59375 92.992188 L 29.542969 94.167969 C 34.246094 94.960938 39.054688 94.855469 43.695312 93.847656 L 64.128906 89.464844 C 69.28125 88.355469 74.242188 92.03125 74.667969 97.289062 L 75.589844 108.449219 C 75.953125 112.875 74.328125 117.214844 71.183594 120.316406 L 51.046875 140.195312 C 44.3125 146.84375 34.609375 149.515625 25.414062 147.230469 L 8.484375 142.996094 L 2.179688 165.292969 C 1.046875 169.355469 3.375 172.539062 7.394531 172.433594 Z M 7.394531 172.433594 "/></g></g><mask id="9c09b88881"><g filter="url(#35f9905723)"><rect x="0" width="810" y="0" height="899.99999" style="fill:#000000;fill-opacity:0.25;stroke:none;"/></g></mask></g><path style=" stroke:none;fill-rule:nonzero;fill:#f5faf4;fill-opacity:1;" d="M 652.578125 571.460938 C 654.808594 571.402344 657.148438 569.515625 657.785156 567.269531 L 662.167969 551.738281 C 662.804688 549.492188 661.5 547.703125 659.269531 547.757812 C 657.039062 547.816406 654.699219 549.703125 654.0625 551.949219 L 649.679688 567.480469 C 649.042969 569.726562 650.347656 571.515625 652.578125 571.460938 Z M 652.578125 571.460938 "/><path style=" stroke:none;fill-rule:nonzero;fill:#f4a795;fill-opacity:1;" d="M 482.390625 640.394531 L 486.773438 633.851562 C 489.269531 630.125 493.042969 627.585938 497.246094 626.554688 C 503.597656 620.347656 513.574219 615.425781 525.699219 611.257812 L 520.683594 629.007812 L 533.546875 631.179688 C 538.25 631.972656 543.039062 631.863281 547.699219 630.859375 L 568.132812 626.457031 C 573.285156 625.34375 578.246094 629.019531 578.671875 634.300781 L 579.59375 645.460938 C 579.957031 649.863281 578.332031 654.203125 575.1875 657.324219 L 555.050781 677.207031 C 548.316406 683.855469 538.613281 686.503906 529.417969 684.21875 L 495.363281 675.730469 C 491.238281 674.703125 486.964844 674.425781 482.730469 674.917969 L 450.921875 678.679688 L 447.542969 644.691406 Z M 482.390625 640.394531 "/><g mask="url(#245df61082)" transform="matrix(1,0,0,1,255,465)"><g clip-path="url(#e88ca5be28)"><g clip-rule="nonzero" clip-path="url(#1331538ac1)"><path style=" stroke:none;fill-rule:nonzero;fill:#f5faf4;fill-opacity:1;" d="M 0.984375 220.5625 C 0.984375 217.835938 1.273438 215.175781 1.808594 212.605469 L 19.734375 39.136719 L 20.246094 39.230469 C 23.296875 18.476562 41.125 2.527344 62.730469 2.527344 C 86.472656 2.527344 105.722656 21.777344 105.722656 45.523438 C 105.722656 48.726562 105.34375 51.839844 104.679688 54.84375 L 104.695312 54.847656 L 85.726562 175.644531 L 191.683594 170.988281 L 199.207031 246.847656 L 49.128906 258.238281 C 46.144531 258.972656 43.042969 259.40625 39.828125 259.40625 C 38.59375 259.40625 37.378906 259.332031 36.175781 259.222656 L 33.742188 259.40625 L 33.703125 258.875 C 15.167969 255.933594 0.984375 239.925781 0.984375 220.5625 Z M 0.984375 220.5625 "/></g></g><mask id="245df61082"><g filter="url(#35f9905723)"><rect x="0" width="810" y="0" height="899.99999" style="fill:#000000;fill-opacity:0.25;stroke:none;"/></g></mask></g><path style=" stroke:none;fill-rule:nonzero;fill:#f4a795;fill-opacity:1;" d="M 400.894531 354.636719 C 410.277344 354.636719 419.722656 360.296875 425.230469 368.386719 L 426.667969 368.964844 C 437.71875 368.628906 444.125 356.308594 438.054688 347.066406 L 434.285156 341.328125 C 431.402344 324.691406 439.371094 315.203125 458.429688 313.019531 L 461.0625 314.542969 C 469.488281 319.425781 475.671875 327.414062 478.28125 336.796875 L 482.746094 352.835938 L 500.171875 364.46875 C 504.097656 367.089844 504.171875 372.832031 500.316406 375.550781 L 493.445312 380.402344 L 496.058594 410.714844 C 496.804688 419.371094 490.65625 427.105469 482.054688 428.332031 L 467.6875 430.375 L 465.007812 446.414062 L 465.007812 490.632812 C 446.574219 500.65625 423.804688 497.820312 408.386719 483.589844 L 396.28125 472.417969 L 399.207031 428.273438 L 398.753906 418.453125 L 398.757812 418.453125 C 404.605469 412.726562 405.101562 403.980469 400.945312 397.707031 C 392.714844 393.894531 385.855469 386.269531 383.6875 377.472656 C 380.582031 364.863281 388.285156 354.636719 400.894531 354.636719 Z M 400.894531 354.636719 "/><path style=" stroke:none;fill-rule:nonzero;fill:#f5faf4;fill-opacity:1;" d="M 481.921875 467.527344 L 465.007812 451.042969 C 465.175781 454.105469 465.167969 456.960938 464.980469 459.601562 C 464.21875 470.355469 453.914062 477.761719 443.417969 475.300781 C 419.027344 469.585938 405.445312 459.898438 397.902344 447.984375 L 381.054688 467.527344 L 445.472656 541.3125 L 460.308594 492.152344 L 487.855469 535.378906 Z M 481.921875 467.527344 "/></g></svg>